<svg id="Layer_1" data-name="Layer 1" xmlns="http://www.w3.org/2000/svg" xmlns:xlink="http://www.w3.org/1999/xlink" width="511.98" height="511.98" viewBox="0 0 511.98 511.98"><defs><mask id="mask" x="365.72" y="105.48" width="9" height="4" maskUnits="userSpaceOnUse"><g id="path-106-outside-1_1805_1125" data-name="path-106-outside-1 1805 1125"><rect x="365.72" y="105.48" width="9" height="4" fill="#fff"/></g></mask><mask id="mask-2" x="365.72" y="106.48" width="9" height="2" maskUnits="userSpaceOnUse"><g id="path-108-outside-2_1805_1125" data-name="path-108-outside-2 1805 1125"><rect x="365.72" y="106.48" width="9" height="2" fill="#fff"/></g></mask></defs><rect x="16.38" y="25.47" width="479" height="1" fill="#ccc"/><rect x="16.38" y="48.47" width="479" height="1" fill="#ccc"/><rect x="16.38" y="71.47" width="479" height="1" fill="#ccc"/><rect x="16.38" y="94.47" width="479" height="1" fill="#ccc"/><rect x="16.38" y="117.47" width="479" height="1" fill="#ccc"/><rect x="16.38" y="140.47" width="479" height="1" fill="#ccc"/><rect x="16.38" y="163.47" width="479" height="1" fill="#ccc"/><rect x="16.38" y="186.47" width="479" height="1" fill="#ccc"/><rect x="16.38" y="209.47" width="479" height="1" fill="#ccc"/><rect x="16.38" y="232.47" width="479" height="1" fill="#ccc"/><rect x="16.38" y="255.47" width="479" height="1" fill="#ccc"/><rect x="16.38" y="278.47" width="479" height="1" fill="#ccc"/><rect x="16.38" y="301.47" width="479" height="1" fill="#ccc"/><rect x="16.38" y="324.47" width="479" height="1" fill="#ccc"/><rect x="16.38" y="347.47" width="479" height="1" fill="#ccc"/><rect x="16.38" y="370.47" width="479" height="1" fill="#ccc"/><rect x="16.38" y="393.47" width="479" height="1" fill="#ccc"/><rect x="16.38" y="416.47" width="479" height="1" fill="#ccc"/><rect x="16.38" y="439.47" width="479" height="1" fill="#ccc"/><rect x="16.38" y="462.47" width="479" height="1" fill="#ccc"/><rect x="16.38" y="485.47" width="479" height="1" fill="#ccc"/><rect x="25.38" y="16.47" width="1" height="479" fill="#ccc"/><rect x="48.38" y="16.47" width="1" height="479" fill="#ccc"/><rect x="71.38" y="16.47" width="1" height="479" fill="#ccc"/><rect x="94.38" y="16.47" width="1" height="479" fill="#ccc"/><rect x="117.38" y="16.47" width="1" height="479" fill="#ccc"/><rect x="140.38" y="16.47" width="1" height="479" fill="#ccc"/><rect x="163.38" y="16.47" width="1" height="479" fill="#ccc"/><rect x="186.38" y="16.47" width="1" height="479" fill="#ccc"/><rect x="209.38" y="16.47" width="1" height="479" fill="#ccc"/><rect x="232.38" y="16.47" width="1" height="479" fill="#ccc"/><rect x="255.38" y="16.47" width="1" height="479" fill="#ccc"/><rect x="278.38" y="16.47" width="1" height="479" fill="#ccc"/><rect x="301.38" y="16.47" width="1" height="479" fill="#ccc"/><rect x="324.38" y="16.47" width="1" height="479" fill="#ccc"/><rect x="347.38" y="16.47" width="1" height="479" fill="#ccc"/><rect x="370.38" y="16.47" width="1" height="479" fill="#ccc"/><rect x="393.38" y="16.47" width="1" height="479" fill="#ccc"/><rect x="416.38" y="16.47" width="1" height="479" fill="#ccc"/><rect x="439.38" y="16.47" width="1" height="479" fill="#ccc"/><rect x="462.38" y="16.47" width="1" height="479" fill="#ccc"/><rect x="485.38" y="16.47" width="1" height="479" fill="#ccc"/><path d="M.64,256.41a1,1,0,0,1,0-1.87l13.14-5a1,1,0,0,1,1.35.93v10.08a1,1,0,0,1-1.35.94Z" fill="#7f7f7f"/><path d="M511.34,254.54a1,1,0,0,1,0,1.87l-13.13,5a1,1,0,0,1-1.36-.94V250.43a1,1,0,0,1,1.36-.93Z" fill="#7f7f7f"/><path d="M13.38,254.47h491v2h-491Z" fill="#7f7f7f"/><path d="M256.41,511.34a1,1,0,0,1-1.87,0l-5-13.13a1,1,0,0,1,.93-1.36h10.08a1,1,0,0,1,.94,1.36Z" fill="#7f7f7f"/><path d="M254.54.64a1,1,0,0,1,1.87,0l5,13.14a1,1,0,0,1-.94,1.35H250.43a1,1,0,0,1-.93-1.35Z" fill="#7f7f7f"/><path d="M254.47,498.61V7.61h2v491Z" fill="#7f7f7f"/><path d="M270.47,11.09H268l1.82-2.76-1.18-7h2.34L271.56,6l2.71-4.68h2.41Z" fill="#333"/><path d="M503.12,240.29l-2-3.5h2.46l1.14,2.17,2-2.17h2.64l-3.65,3.57,2,3.56h-2.46l-1.15-2.2-2.12,2.2h-2.64Z" fill="#333"/><path d="M307.38,274.47H297.33v-1h-1.15l1.15-1.24v-1.41l2.61-2.91h-2.79v-2a4.71,4.71,0,0,1,1.43-3.5h0a5,5,0,0,1,3.58-1.34,4.91,4.91,0,0,1,3.38,1.2,4.29,4.29,0,0,1,1.41,3.28,6.42,6.42,0,0,1-1.69,3.93h2.11ZM299.15,266h1.17a2,2,0,0,1,.39-1.28h0a.28.28,0,0,1,.09-.1,1.78,1.78,0,0,1,1.36-.5,1.52,1.52,0,0,1,1.17.46l.09.11h0a1.58,1.58,0,0,1,.34.94s0,.09,0,.14a2.06,2.06,0,0,1-.28,1,6.78,6.78,0,0,1-1,1.31l-3.2,3.56v.84h6.05v-1h-4.64l2.48-2.68.06-.07h0a9.3,9.3,0,0,0,1.13-1.49h0a3.42,3.42,0,0,0,.53-1.53.71.71,0,0,0,0-.14,2.3,2.3,0,0,0-.75-1.8l0,0a3,3,0,0,0-2-.65,3.09,3.09,0,0,0-2.13.72h0l-.07.07-.07.06A2.77,2.77,0,0,0,299.15,266Z" fill="#fff" fill-rule="evenodd"/><path d="M305.38,272.47h-6.05v-.84l3.2-3.56a6.78,6.78,0,0,0,1-1.31,2.06,2.06,0,0,0,.28-1,1.68,1.68,0,0,0-.44-1.19,1.52,1.52,0,0,0-1.17-.46,1.78,1.78,0,0,0-1.36.5,1.86,1.86,0,0,0-.49,1.38h-1.17a2.7,2.7,0,0,1,.82-2.06,3,3,0,0,1,2.2-.79,2.94,2.94,0,0,1,2,.68,2.3,2.3,0,0,1,.75,1.8,5.29,5.29,0,0,1-1.74,3.25l-2.48,2.68h4.64Z" fill="#545454"/><path d="M249.73,215.47h-10v-1h-1.15l1.15-1.24v-1.41l2.61-2.91H239.5v-2a4.71,4.71,0,0,1,1.43-3.5h0a5,5,0,0,1,3.58-1.34,4.91,4.91,0,0,1,3.38,1.2,4.29,4.29,0,0,1,1.41,3.28,6.42,6.42,0,0,1-1.69,3.93h2.11ZM241.5,207h1.17a2,2,0,0,1,.39-1.28h0a.28.28,0,0,1,.09-.1,1.78,1.78,0,0,1,1.36-.5,1.52,1.52,0,0,1,1.17.46l.09.11h0a1.58,1.58,0,0,1,.34.94.61.61,0,0,1,0,.14,2.06,2.06,0,0,1-.28,1,6.78,6.78,0,0,1-1,1.31l-.06.07-3.14,3.49v.84h6v-1h-4.64l2.48-2.68.06-.07h0a9.3,9.3,0,0,0,1.13-1.49h0a3.42,3.42,0,0,0,.53-1.53.71.71,0,0,0,0-.14,2.3,2.3,0,0,0-.75-1.8l0,0a3,3,0,0,0-2-.65,3.09,3.09,0,0,0-2.13.72h0l-.07.07-.07.06A2.77,2.77,0,0,0,241.5,207Z" fill="#fff" fill-rule="evenodd"/><path d="M247.73,213.47h-6v-.84l3.2-3.56a6.78,6.78,0,0,0,1-1.31,2.06,2.06,0,0,0,.28-1,1.68,1.68,0,0,0-.44-1.19,1.52,1.52,0,0,0-1.17-.46,1.78,1.78,0,0,0-1.36.5,1.86,1.86,0,0,0-.49,1.38H241.5a2.7,2.7,0,0,1,.82-2.06,3,3,0,0,1,2.2-.79,2.94,2.94,0,0,1,2,.68,2.3,2.3,0,0,1,.75,1.8,5.29,5.29,0,0,1-1.74,3.25l-2.48,2.68h4.64Z" fill="#545454"/><path d="M249.92,162.37v5h-1.29v2.14h-5.18v-2.14h-4.2v-1h-.32l.32-.5V164l5-7.81h4.34v6.14Zm-4.47,5.1h1.18v-2.14h1.29v-1h-1.29v-6.14h-1.25l-4.13,6.4v.7h4.2Zm0-3.1v-4.53l-.14.25-2.73,4.28Z" fill="#fff" fill-rule="evenodd"/><path d="M246.63,164.37h1.29v1h-1.29v2.14h-1.18v-2.14h-4.2v-.7l4.13-6.4h1.25Zm-4,0h2.87v-4.53l-.14.25Z" fill="#545454"/><path d="M248.29,110.22v4.63l.1.12a5.7,5.7,0,0,1-.1,7.12,4.69,4.69,0,0,1-3.57,1.51,4.63,4.63,0,0,1-3.7-1.76h0l-.14-.18-.47.54.1-1.11a6.37,6.37,0,0,1-.76-3.14v-.45a8,8,0,0,1,1.53-5.15h0a6,6,0,0,1,4.77-2.13h2.24Zm-2,3v-1h-.24a5,5,0,0,0-1.76.33,3.5,3.5,0,0,0-1.15.72,3.39,3.39,0,0,0-.31.34,4.27,4.27,0,0,0-.29.41,5,5,0,0,0-.56,1.38,1,1,0,0,0,0,.17c0,.19-.08.38-.11.58s-.07.7-.08,1.08v.86a4.27,4.27,0,0,0,.49,2,3.88,3.88,0,0,0,.32.47h0a2.64,2.64,0,0,0,2.15,1,2.68,2.68,0,0,0,2.09-.86l0,0h0a3.23,3.23,0,0,0,.76-2.2v-.05a3.28,3.28,0,0,0-.72-2.19h0a2.34,2.34,0,0,0-1.54-.83h-.58a3.39,3.39,0,0,0-.72.13,2.42,2.42,0,0,0-.88.51,1.8,1.8,0,0,0-.19.2,2.3,2.3,0,0,1,.05-.39,3.49,3.49,0,0,1,.43-1.24,2.88,2.88,0,0,1,.23-.34h0a2.73,2.73,0,0,1,.23-.25,2.6,2.6,0,0,1,1-.62,3.81,3.81,0,0,1,1.16-.19Zm-2.5,3.43-.16.1-.06,0a2,2,0,0,0-.58.71l-.06.16v.43a3.49,3.49,0,0,0,.14,1.06,2.35,2.35,0,0,0,.35.75h0l0,0a1.55,1.55,0,0,0,1.28.7A1.5,1.5,0,0,0,246,120l0,0h0a2.46,2.46,0,0,0,.42-1.49v-.05A2.28,2.28,0,0,0,246,117h0l0,0a1.41,1.41,0,0,0-1-.58h-.35A1.89,1.89,0,0,0,243.79,116.65Zm.59,2.17h0Z" fill="#fff" fill-rule="evenodd"/><path d="M246.29,112.22v1h-.22a3.12,3.12,0,0,0-2.18.81,3.35,3.35,0,0,0-.94,2.22,2.49,2.49,0,0,1,2-.84,2.38,2.38,0,0,1,1.92.85,3.7,3.7,0,0,1-.05,4.48,2.68,2.68,0,0,1-2.09.86,2.64,2.64,0,0,1-2.15-1,4,4,0,0,1-.82-2.63v-.45a6.07,6.07,0,0,1,1.08-3.89,4,4,0,0,1,3.25-1.39Zm-1.55,4.17a1.89,1.89,0,0,0-1.11.36,1.83,1.83,0,0,0-.7.91v.43a3.06,3.06,0,0,0,.51,1.84,1.55,1.55,0,0,0,1.28.7A1.5,1.5,0,0,0,246,120a2.44,2.44,0,0,0,.45-1.53A2.38,2.38,0,0,0,246,117,1.44,1.44,0,0,0,244.74,116.39Z" fill="#545454"/><path d="M243.17,69.43l-.07-.16a2,2,0,0,1-.09-.61v0a1.57,1.57,0,0,1,.33-1,.52.52,0,0,1,.1-.11,1.49,1.49,0,0,1,1.12-.43,1.51,1.51,0,0,1,1.11.44l.1.11h0a1.67,1.67,0,0,1,.34,1v0a1.64,1.64,0,0,1-.1.6h0a1.22,1.22,0,0,1-.07.17,1.69,1.69,0,0,1-.21.31.12.12,0,0,1,0,0,.86.86,0,0,1-.14.13,1.57,1.57,0,0,1-1,.3h0a1.57,1.57,0,0,1-1-.31l-.12-.12-.06-.06A1.27,1.27,0,0,1,243.17,69.43Zm-1.29-.31a2.32,2.32,0,0,1,0-.46v0a2.41,2.41,0,0,1,.74-1.85l.08-.07a2.86,2.86,0,0,1,1.9-.62,2.81,2.81,0,0,1,1.9.63l.07.06a2.38,2.38,0,0,1,.75,1.85v0a2.34,2.34,0,0,1-.05.47,2,2,0,0,1-.32.74.18.18,0,0,1,0,.07,1.83,1.83,0,0,1-.21.26,2.35,2.35,0,0,1-.29.26h0a3.07,3.07,0,0,1-.43.26,2.45,2.45,0,0,1,.55.31h0a2.28,2.28,0,0,1,.33.29l.08.08.17.22a2.23,2.23,0,0,1,.3.57,2.69,2.69,0,0,1,.13.76v0a2.42,2.42,0,0,1-.81,1.91l-.09.07h0a3.13,3.13,0,0,1-2,.64,3.19,3.19,0,0,1-2.05-.63h0l-.09-.07a2.46,2.46,0,0,1-.8-1.91v0a2.31,2.31,0,0,1,.12-.75,2.42,2.42,0,0,1,.29-.58c.05-.08.11-.15.17-.23a.23.23,0,0,0,.07-.07,1.93,1.93,0,0,1,.34-.29h0a3.26,3.26,0,0,1,.55-.31,2.06,2.06,0,0,1-.4-.25h0a1.93,1.93,0,0,1-.3-.27,1.64,1.64,0,0,1-.21-.25l-.05-.07A2.25,2.25,0,0,1,241.88,69.12Zm-1.57,1.48a4.17,4.17,0,0,1-.47-2,4.41,4.41,0,0,1,1.39-3.33,4.83,4.83,0,0,1,3.33-1.21,4.78,4.78,0,0,1,3.31,1.21,4.34,4.34,0,0,1,1.41,3.33,4.1,4.1,0,0,1-.48,2,4.24,4.24,0,0,1,.7,2.37,4.4,4.4,0,0,1-1.5,3.41,5.52,5.52,0,0,1-6.9,0h0a4.47,4.47,0,0,1-1.46-3.4A4.37,4.37,0,0,1,240.31,70.6Zm2.61,1.63h0a1.88,1.88,0,0,0-.13.72v0a1.82,1.82,0,0,0,.35,1.09h0l.11.12a2.09,2.09,0,0,0,2.59,0l.11-.12h0a1.7,1.7,0,0,0,.35-1.09v0a1.94,1.94,0,0,0-.12-.7h0a2.11,2.11,0,0,0-.16-.3,1.73,1.73,0,0,0-.17-.21l0,0a1.37,1.37,0,0,0-.23-.19,1.79,1.79,0,0,0-1-.3h0a1.83,1.83,0,0,0-1.05.29,2.11,2.11,0,0,0-.23.19l-.05,0a1,1,0,0,0-.15.21A1.32,1.32,0,0,0,242.92,72.23Zm1.49.59,0,0a.31.31,0,0,0,0,.1h0v0a.14.14,0,0,0,0,.06l.13-.14Zm.09.08-.09-.09s0,0,.05,0l.09.09Zm0,0-.13.13v0l0,0h0s0,0,.06,0l.06,0h0l.06,0,.06-.05Zm0,0,.05,0,.17.18,0,0Zm.23.13-.18-.18.09-.09a.12.12,0,0,1,0,0h0l0,0a.31.31,0,0,1,.05.1h0l0,.07Zm-.18-.19.08-.09a.27.27,0,0,0-.08-.07h0a.27.27,0,0,0-.08.07ZM244.3,69l.26-.25.31-.3a.39.39,0,0,1,.12.19s0,0,0,0h0v0a.54.54,0,0,1-.14.22s0,0,0,0h0a.51.51,0,0,1-.16.09l-.09,0h0l-.13,0Zm0,0,.26-.26.3-.3,0,0a.59.59,0,0,0-.17-.1.17.17,0,0,0-.08,0h0a.18.18,0,0,0-.09,0,.59.59,0,0,0-.17.1m0,.6,0,0a.62.62,0,0,1-.12-.19.25.25,0,0,1,0-.07h0l0-.06a.47.47,0,0,1,.12-.19" fill="#fff" fill-rule="evenodd"/><path d="M240.24,31.47h-5.18v-7l-2.37.87V20.06l5-1.87h2.55v2.58a5.79,5.79,0,0,1,.47-.84,5,5,0,0,1,7.65-.06A7,7,0,0,1,249.47,24h0v1.53a7.31,7.31,0,0,1-1.07,4.22,4.91,4.91,0,0,1-7.64.05h0a5.34,5.34,0,0,1-.51-.9Zm6.58-10.3-.07-.11a3,3,0,0,0-4.41,0,.35.35,0,0,1-.05.08,5.08,5.08,0,0,0-.65,2.65h0v1.88a5.42,5.42,0,0,0,.65,2.79h0a.44.44,0,0,0,.08.11,2.93,2.93,0,0,0,4.39,0l0,0h0a5.17,5.17,0,0,0,.67-2.69h0V23.92a5.21,5.21,0,0,0-.64-2.75Zm-.94.58,0,0h0a1.44,1.44,0,0,0-1.31-.65,1.42,1.42,0,0,0-1.3.66v0a4.14,4.14,0,0,0-.43,2.08v1.88a4.53,4.53,0,0,0,.43,2.22l0,0h0a1.44,1.44,0,0,0,1.29.67,1.41,1.41,0,0,0,1.29-.67h0a4.18,4.18,0,0,0,.44-2.11V23.92A4.3,4.3,0,0,0,245.88,21.75Zm-8.82,7.72h1.18V20.19h-.19l-3.36,1.26v1.06l2.37-.87Z" fill="#fff" fill-rule="evenodd"/><path d="M238.24,29.47h-1.18V21.64l-2.37.87V21.45l3.36-1.26h.19Z" fill="#545454"/><path d="M247.47,25.53a5.38,5.38,0,0,1-.7,3.07,2.93,2.93,0,0,1-4.39,0,5.06,5.06,0,0,1-.74-2.93V24.12a5.26,5.26,0,0,1,.7-3,3,3,0,0,1,4.41,0,5.06,5.06,0,0,1,.72,3Zm-1.17-1.61a4.3,4.3,0,0,0-.42-2.17,1.45,1.45,0,0,0-1.33-.68,1.4,1.4,0,0,0-1.31.68,4.14,4.14,0,0,0-.43,2.08v1.88a4.53,4.53,0,0,0,.43,2.22,1.47,1.47,0,0,0,1.32.71,1.41,1.41,0,0,0,1.29-.67,4.1,4.1,0,0,0,.45-2.12Z" fill="#545454"/><path d="M239.5,299.07h-3.95V304h4.13v1.25l-1.15,1.24h1.15v1h10v-5h-2.11a6.42,6.42,0,0,0,1.69-3.93,4.29,4.29,0,0,0-1.41-3.28,4.91,4.91,0,0,0-3.38-1.2,5,5,0,0,0-3.58,1.34h0a4.71,4.71,0,0,0-1.43,3.5Zm2-.12h1.17a2,2,0,0,1,.39-1.28h0a.28.28,0,0,1,.09-.1,1.78,1.78,0,0,1,1.36-.5,1.52,1.52,0,0,1,1.17.46l.09.11h0a1.58,1.58,0,0,1,.34.94.61.61,0,0,1,0,.14,2.06,2.06,0,0,1-.28,1,6.78,6.78,0,0,1-1,1.31l-.06.07-3.14,3.49v.84h6v-1h-4.64l2.48-2.68.06-.07h0a9.3,9.3,0,0,0,1.13-1.49h0a3.42,3.42,0,0,0,.53-1.53.71.71,0,0,0,0-.14,2.3,2.3,0,0,0-.75-1.8l0,0a3,3,0,0,0-2-.65,3.09,3.09,0,0,0-2.13.72h0l-.07.07-.07.06A2.77,2.77,0,0,0,241.5,299Zm-3.95,2.12V302h3.1v-.95Z" fill="#fff" fill-rule="evenodd"/><path d="M240.65,302h-3.1v-.95h3.1Z" fill="#545454"/><path d="M247.73,305.47h-6v-.84l3.2-3.56a6.78,6.78,0,0,0,1-1.31,2.06,2.06,0,0,0,.28-1,1.68,1.68,0,0,0-.44-1.19,1.52,1.52,0,0,0-1.17-.46,1.78,1.78,0,0,0-1.36.5,1.86,1.86,0,0,0-.49,1.38H241.5a2.7,2.7,0,0,1,.82-2.06,3,3,0,0,1,2.2-.79,2.94,2.94,0,0,1,2,.68,2.3,2.3,0,0,1,.75,1.8,5.29,5.29,0,0,1-1.74,3.25l-2.48,2.68h4.64Z" fill="#545454"/><path d="M240.65,348v-.95h-3.1V348Zm.52-2.95h-5.62V350h3.59l-.21.35h.32v1h4.2v2.14h5.18v-2.14h1.29v-5h-1.29v-6.14h-4.34Zm.08,3.56v.7h4.2v2.14h1.18v-2.14h1.29v-1h-1.29v-6.14h-1.25Zm1.33-.26h2.87v-4.53l-.14.25Z" fill="#fff" fill-rule="evenodd"/><path d="M240.65,348h-3.1v-.95h3.1Z" fill="#545454"/><path d="M246.63,348.37h1.29v1h-1.29v2.14h-1.18v-2.14h-4.2v-.7l4.13-6.4h1.25Zm-4,0h2.87v-4.53l-.14.25Z" fill="#545454"/><path d="M240,391.07a6.7,6.7,0,0,1,1.28-2.72h0a6,6,0,0,1,4.77-2.13h2.24v4.63l.1.12a5.7,5.7,0,0,1-.1,7.12,4.69,4.69,0,0,1-3.57,1.51,4.63,4.63,0,0,1-3.7-1.76h0l-.14-.18-.47.54.1-1.11a5.31,5.31,0,0,1-.46-1.07h-4.5v-4.95Zm-2.45,2V394h3.1v-.95Zm8.74-3.85v-1h-.24a5,5,0,0,0-1.76.33,3.5,3.5,0,0,0-1.15.72,3.39,3.39,0,0,0-.31.34,4.27,4.27,0,0,0-.29.41,5.06,5.06,0,0,0-.47,1.05l-.09.33a1,1,0,0,0,0,.17c0,.19-.08.38-.11.58s-.06.59-.08.92v1a4.17,4.17,0,0,0,.46,1.93l0,.08a3.88,3.88,0,0,0,.32.47h0a2.64,2.64,0,0,0,2.15,1,2.68,2.68,0,0,0,2.09-.86l0,0h0a3.23,3.23,0,0,0,.76-2.2v-.05a3.28,3.28,0,0,0-.72-2.19h0a2.34,2.34,0,0,0-1.54-.83h-.58a3.39,3.39,0,0,0-.72.13,2.42,2.42,0,0,0-.88.51,1.8,1.8,0,0,0-.19.2,2.3,2.3,0,0,1,.05-.39,3.49,3.49,0,0,1,.43-1.24,2.88,2.88,0,0,1,.23-.34h0a2.73,2.73,0,0,1,.23-.25,2.6,2.6,0,0,1,1-.62,3.81,3.81,0,0,1,1.16-.19Zm-3.22,5.93a2.35,2.35,0,0,0,.35.75h0l0,0a1.55,1.55,0,0,0,1.28.7A1.5,1.5,0,0,0,246,396l0,0h0a2.46,2.46,0,0,0,.42-1.49v-.05A2.28,2.28,0,0,0,246,393h0l0,0a1.41,1.41,0,0,0-1-.58h-.35a1.89,1.89,0,0,0-.8.26l-.16.1-.06,0a2,2,0,0,0-.58.71l-.06.16v.43A3.49,3.49,0,0,0,243.07,395.15Zm1.31-.33h0Z" fill="#fff" fill-rule="evenodd"/><path d="M240.65,394h-3.1v-.95h3.1Z" fill="#545454"/><path d="M246.29,388.22v1h-.22a3.12,3.12,0,0,0-2.18.81,3.35,3.35,0,0,0-.94,2.22,2.49,2.49,0,0,1,2-.84,2.38,2.38,0,0,1,1.92.85,3.7,3.7,0,0,1-.05,4.48,2.68,2.68,0,0,1-2.09.86,2.64,2.64,0,0,1-2.15-1,4,4,0,0,1-.82-2.63v-.45a6.07,6.07,0,0,1,1.08-3.89,4,4,0,0,1,3.25-1.39Zm-1.55,4.17a1.89,1.89,0,0,0-1.11.36,1.83,1.83,0,0,0-.7.91v.43a3.06,3.06,0,0,0,.51,1.84,1.55,1.55,0,0,0,1.28.7A1.5,1.5,0,0,0,246,396a2.44,2.44,0,0,0,.45-1.53A2.38,2.38,0,0,0,246,393,1.44,1.44,0,0,0,244.74,392.39Z" fill="#545454"/><path d="M237.55,440h3.1v-.95h-3.1Zm2.31-2.95h-4.31V442h4.18a4.4,4.4,0,0,0,1.35,2.36h0a5.52,5.52,0,0,0,6.9,0,4.4,4.4,0,0,0,1.5-3.41,4.24,4.24,0,0,0-.7-2.37,4.1,4.1,0,0,0,.48-2,4.34,4.34,0,0,0-1.41-3.33,4.78,4.78,0,0,0-3.31-1.21,4.83,4.83,0,0,0-3.33,1.21,4.41,4.41,0,0,0-1.39,3.33A3.1,3.1,0,0,0,239.86,437.07Zm7.37.06a2.42,2.42,0,0,0,.05-.47v0a2.37,2.37,0,0,0-.75-1.85l-.07-.06a2.81,2.81,0,0,0-1.9-.63,2.86,2.86,0,0,0-1.9.62l-.08.07a2.4,2.4,0,0,0-.74,1.85v0a2.73,2.73,0,0,0,0,.41v.05a2.25,2.25,0,0,0,.31.75l.05.07a1.64,1.64,0,0,0,.21.25,1.8,1.8,0,0,0,.2.19l.1.08h0a2.06,2.06,0,0,0,.4.25,2.81,2.81,0,0,0-.51.29l0,0h0l-.06,0a2.18,2.18,0,0,0-.28.25.23.23,0,0,1-.07.07c-.06.08-.12.15-.17.23a2.65,2.65,0,0,0-.22.4,1.34,1.34,0,0,0-.07.18,2.31,2.31,0,0,0-.12.75v0a2.68,2.68,0,0,0,.19,1,2.37,2.37,0,0,0,.61.87l.09.07h0a3.19,3.19,0,0,0,2.05.63,3.13,3.13,0,0,0,2-.64h0l.09-.07a2.42,2.42,0,0,0,.81-1.91v0a2.69,2.69,0,0,0-.13-.76,2.23,2.23,0,0,0-.3-.57l-.17-.22-.08-.08a2.28,2.28,0,0,0-.33-.29h0a2.45,2.45,0,0,0-.55-.31,3.07,3.07,0,0,0,.43-.26h0a2.35,2.35,0,0,0,.29-.26,1.83,1.83,0,0,0,.21-.26.18.18,0,0,0,0-.07A2,2,0,0,0,247.23,437.13Zm-1.29.31a1.22,1.22,0,0,0,.07-.17h0a1.64,1.64,0,0,0,.1-.6v0a1.67,1.67,0,0,0-.34-1h0l-.1-.11a1.51,1.51,0,0,0-1.11-.44,1.49,1.49,0,0,0-1.12.43.52.52,0,0,0-.1.11,1.57,1.57,0,0,0-.33,1v0a2,2,0,0,0,.09.61l.07.16a1.27,1.27,0,0,0,.2.31l.06.06.12.12a1.57,1.57,0,0,0,1,.31h0a1.57,1.57,0,0,0,1-.3.86.86,0,0,0,.14-.13l0-.05A1.69,1.69,0,0,0,245.94,437.44ZM244.3,437l.13.07.13,0h0l.09,0a.51.51,0,0,0,.16-.09h0l0,0a.54.54,0,0,0,.14-.22v0h0l0,0a.39.39,0,0,0-.12-.19l-.31.3Zm0,0,.26-.25.3-.3,0,0a.59.59,0,0,0-.17-.1l-.08,0h0a.18.18,0,0,0-.09,0,.59.59,0,0,0-.17.1m0,.59,0,0a.62.62,0,0,1-.12-.19.25.25,0,0,1,0-.07h0a.39.39,0,0,1,0-.06.47.47,0,0,1,.12-.19m1.62,3.32,0,0-.23-.2a1.87,1.87,0,0,0-1-.29h0a1.83,1.83,0,0,0-1.05.29,2.11,2.11,0,0,0-.23.19l-.05.05a1,1,0,0,0-.15.21,1.32,1.32,0,0,0-.15.29h0a1.88,1.88,0,0,0-.13.72v0a1.82,1.82,0,0,0,.35,1.09h0l.11.12a2.09,2.09,0,0,0,2.59,0l.11-.12h0a1.7,1.7,0,0,0,.35-1.09v0a1.94,1.94,0,0,0-.12-.7h0a2.11,2.11,0,0,0-.16-.3A1.73,1.73,0,0,0,245.87,439.73Zm-1.46,1.09,0,0a.31.31,0,0,0,0,.1h0v0a.08.08,0,0,0,0,0l.13-.13Zm.09.09-.13.13v0l0,0h0l.06,0,.06,0h0l.06,0,.06,0Zm0,0,.05,0,.17.19,0,0Zm.23.13-.18-.18.09-.09,0,.05h0l0,0a.31.31,0,0,1,.05.1h0l0,.07Zm-.18-.19.08-.09a.27.27,0,0,0-.08-.07h0a.27.27,0,0,0-.08.07Zm0,0-.05,0-.09-.08.05-.05Z" fill="#fff" fill-rule="evenodd"/><path d="M240.65,440h-3.1v-.95h3.1Z" fill="#545454"/><path d="M247.28,436.64a2.1,2.1,0,0,1-.37,1.23,2.54,2.54,0,0,1-1,.85,2.63,2.63,0,0,1,1.14.9,2.25,2.25,0,0,1,.43,1.36,2.42,2.42,0,0,1-.81,1.91,3.57,3.57,0,0,1-4.27,0,2.46,2.46,0,0,1-.8-1.91,2.42,2.42,0,0,1,.41-1.36,2.56,2.56,0,0,1,1.13-.91,2.41,2.41,0,0,1-1-.84,2.16,2.16,0,0,1-.35-1.23,2.4,2.4,0,0,1,.74-1.85,3.17,3.17,0,0,1,3.95,0A2.37,2.37,0,0,1,247.28,436.64Zm-1,4.31a1.69,1.69,0,0,0-.49-1.26,1.76,1.76,0,0,0-3,1.26,1.64,1.64,0,0,0,.47,1.24,2.09,2.09,0,0,0,2.59,0A1.64,1.64,0,0,0,246.32,441Zm-1.76-5.88a1.49,1.49,0,0,0-1.12.43,1.54,1.54,0,0,0-.43,1.16,1.57,1.57,0,0,0,.42,1.14,1.5,1.5,0,0,0,1.13.43,1.48,1.48,0,0,0,1.12-.43,1.54,1.54,0,0,0,.43-1.14,1.58,1.58,0,0,0-.44-1.15A1.51,1.51,0,0,0,244.56,435.07Z" fill="#545454"/><path d="M235.06,488h-6.81v-4.95h4.44v-3l5-1.88h2.55v2.59a5.79,5.79,0,0,1,.47-.84,5,5,0,0,1,7.65-.06,7,7,0,0,1,1.11,4.12h0v1.53a7.31,7.31,0,0,1-1.07,4.22,4.91,4.91,0,0,1-7.64.05h0a5.06,5.06,0,0,1-.51-.91v2.59h-5.18Zm-1.71-2.95h-3.1V486h3.1Zm3.71,4.4h1.18v-9.29h-.19l-3.36,1.27v1.06l2.37-.87Zm9.76-8.3-.07-.11a3,3,0,0,0-4.41,0,.35.35,0,0,1-.05.08,5.08,5.08,0,0,0-.65,2.65h0v1.88a5.42,5.42,0,0,0,.65,2.79h0a.44.44,0,0,0,.08.11,2.93,2.93,0,0,0,4.39,0l0,0h0a5.17,5.17,0,0,0,.67-2.69h0v-1.93a5.21,5.21,0,0,0-.64-2.75Zm-.94.58,0,0h0a1.44,1.44,0,0,0-1.31-.65,1.42,1.42,0,0,0-1.3.66v0a4.14,4.14,0,0,0-.43,2.08v1.88a4.53,4.53,0,0,0,.43,2.22l0,0h0a1.44,1.44,0,0,0,1.29.67,1.41,1.41,0,0,0,1.29-.67h0a4.18,4.18,0,0,0,.44-2.11v-1.93A4.3,4.3,0,0,0,245.88,481.75Z" fill="#fff" fill-rule="evenodd"/><path d="M233.35,486h-3.1v-.95h3.1Z" fill="#545454"/><path d="M238.24,489.47h-1.18v-7.83l-2.37.87v-1.06l3.36-1.27h.19Z" fill="#545454"/><path d="M247.47,485.53a5.4,5.4,0,0,1-.7,3.07,2.93,2.93,0,0,1-4.39,0,5.09,5.09,0,0,1-.74-2.93v-1.57a5.26,5.26,0,0,1,.7-3,3,3,0,0,1,4.41,0,5.06,5.06,0,0,1,.72,2.95Zm-1.17-1.61a4.3,4.3,0,0,0-.42-2.17,1.45,1.45,0,0,0-1.33-.68,1.4,1.4,0,0,0-1.31.68,4.14,4.14,0,0,0-.43,2.08v1.88a4.53,4.53,0,0,0,.43,2.22,1.47,1.47,0,0,0,1.32.71,1.41,1.41,0,0,0,1.29-.67,4.1,4.1,0,0,0,.45-2.12Z" fill="#545454"/><path d="M353.57,267.37v5h-1.29v2.14H347.1v-2.14h-4.2v-1h-.32l.32-.5V269l5-7.81h4.34v6.14Zm-4.47,5.1h1.18v-2.14h1.29v-1h-1.29v-6.14H349l-4.13,6.4v.7h4.2Zm0-3.1v-4.53l-.14.25-2.73,4.28Z" fill="#fff" fill-rule="evenodd"/><path d="M350.28,269.37h1.29v1h-1.29v2.14H349.1v-2.14h-4.2v-.7l4.13-6.4h1.25Zm-4,0h2.87v-4.53l-.14.25Z" fill="#545454"/><path d="M396.94,261.22v4.63l.1.12a5.7,5.7,0,0,1-.1,7.12,4.69,4.69,0,0,1-3.57,1.51,4.63,4.63,0,0,1-3.7-1.76h0l-.14-.18-.47.54.1-1.11a6.37,6.37,0,0,1-.76-3.14v-.45a8,8,0,0,1,1.53-5.15h0a6,6,0,0,1,4.77-2.13h2.24Zm-2,3v-1h-.24a5,5,0,0,0-1.76.33,3.5,3.5,0,0,0-1.15.72,3.39,3.39,0,0,0-.31.34,4.27,4.27,0,0,0-.29.41,5,5,0,0,0-.56,1.38,1,1,0,0,0,0,.17c0,.19-.08.38-.11.58s-.07.7-.08,1.08v.86a4.27,4.27,0,0,0,.49,2,3.88,3.88,0,0,0,.32.47h0a2.64,2.64,0,0,0,2.15,1,2.68,2.68,0,0,0,2.09-.86l0,0h0a3.28,3.28,0,0,0,.76-2.2v-.05a3.28,3.28,0,0,0-.72-2.19h0a2.34,2.34,0,0,0-1.54-.83h-.58a3.39,3.39,0,0,0-.72.13,2.42,2.42,0,0,0-.88.51,1.8,1.8,0,0,0-.19.2,2.3,2.3,0,0,1,0-.39,3.49,3.49,0,0,1,.43-1.24,2.88,2.88,0,0,1,.23-.34h0a2.73,2.73,0,0,1,.23-.25,2.6,2.6,0,0,1,1-.62,3.81,3.81,0,0,1,1.16-.19Zm-2.5,3.43-.16.1-.06,0a2,2,0,0,0-.58.71l-.06.16v.43a3.49,3.49,0,0,0,.14,1.06,2.35,2.35,0,0,0,.35.75h0l0,0a1.55,1.55,0,0,0,1.28.7,1.5,1.5,0,0,0,1.25-.59l0,0h0a2.46,2.46,0,0,0,.42-1.49v-.05a2.28,2.28,0,0,0-.44-1.45h0l0,0a1.41,1.41,0,0,0-1-.58h-.35A1.89,1.89,0,0,0,392.44,267.65Zm.59,2.17h0Z" fill="#fff" fill-rule="evenodd"/><path d="M394.94,263.22v1h-.22a3.12,3.12,0,0,0-2.18.81,3.35,3.35,0,0,0-.94,2.22,2.49,2.49,0,0,1,2-.84,2.38,2.38,0,0,1,1.92.85,3.7,3.7,0,0,1-.05,4.48,2.68,2.68,0,0,1-2.09.86,2.64,2.64,0,0,1-2.15-1,4,4,0,0,1-.82-2.63v-.45a6.07,6.07,0,0,1,1.08-3.89,4,4,0,0,1,3.25-1.39Zm-1.55,4.17a1.89,1.89,0,0,0-1.11.36,1.83,1.83,0,0,0-.7.91v.43a3.06,3.06,0,0,0,.51,1.84,1.55,1.55,0,0,0,1.28.7,1.5,1.5,0,0,0,1.25-.59,2.44,2.44,0,0,0,.45-1.53,2.38,2.38,0,0,0-.46-1.53A1.44,1.44,0,0,0,393.39,267.39Z" fill="#545454"/><path d="M437.82,266.43l-.07-.16a2,2,0,0,1-.09-.61v0a1.57,1.57,0,0,1,.33-1l.09-.11a1.53,1.53,0,0,1,1.13-.43,1.51,1.51,0,0,1,1.11.44l.1.11h0a1.67,1.67,0,0,1,.34,1v0a1.64,1.64,0,0,1-.1.6h0a1.22,1.22,0,0,1-.07.17,1.69,1.69,0,0,1-.21.31.12.12,0,0,1-.05.05.86.86,0,0,1-.14.13,1.57,1.57,0,0,1-1,.3h0a1.57,1.57,0,0,1-1-.31l-.12-.12-.06-.06A1.27,1.27,0,0,1,437.82,266.43Zm-1.29-.31a2.32,2.32,0,0,1,0-.46v0a2.4,2.4,0,0,1,.74-1.85l.08-.07a2.86,2.86,0,0,1,1.9-.62,2.81,2.81,0,0,1,1.9.63l.07.06a2.37,2.37,0,0,1,.75,1.85v0a2.42,2.42,0,0,1-.05.47,2,2,0,0,1-.32.74.18.18,0,0,1-.05.07,1.83,1.83,0,0,1-.21.26,2.35,2.35,0,0,1-.29.26h0a3.07,3.07,0,0,1-.43.26,2.69,2.69,0,0,1,.55.31h0a2.28,2.28,0,0,1,.33.29l.08.08.17.22a2.23,2.23,0,0,1,.3.57,2.69,2.69,0,0,1,.13.76v0a2.4,2.4,0,0,1-.82,1.91l-.08.07h0a3.13,3.13,0,0,1-2,.64,3.19,3.19,0,0,1-2-.63h0l-.09-.07a2.46,2.46,0,0,1-.8-1.91v0a2.31,2.31,0,0,1,.12-.75,2.42,2.42,0,0,1,.29-.58c.05-.08.11-.15.17-.23l.07-.07a1.93,1.93,0,0,1,.34-.29h0a3.26,3.26,0,0,1,.55-.31,2.06,2.06,0,0,1-.4-.25h0a1.93,1.93,0,0,1-.3-.27,1.64,1.64,0,0,1-.21-.25l-.05-.07A2.25,2.25,0,0,1,436.53,266.12ZM435,267.6a4.37,4.37,0,0,0-.69,2.38,4.47,4.47,0,0,0,1.46,3.4h0a5.52,5.52,0,0,0,6.9,0,4.4,4.4,0,0,0,1.5-3.41,4.24,4.24,0,0,0-.7-2.37,4.1,4.1,0,0,0,.48-2,4.34,4.34,0,0,0-1.41-3.33,4.78,4.78,0,0,0-3.31-1.21,4.83,4.83,0,0,0-3.33,1.21,4.41,4.41,0,0,0-1.39,3.33A4.17,4.17,0,0,0,435,267.6Zm2.61,1.63h0a1.88,1.88,0,0,0-.13.72v0a1.75,1.75,0,0,0,.35,1.09h0l.11.12a2.09,2.09,0,0,0,2.59,0l.11-.12h0A1.7,1.7,0,0,0,441,270v0a1.94,1.94,0,0,0-.12-.7h0a2.11,2.11,0,0,0-.16-.3,1.18,1.18,0,0,0-.18-.21l0,0-.23-.2a1.87,1.87,0,0,0-1-.29h0a1.83,1.83,0,0,0-1.05.29,2.11,2.11,0,0,0-.23.19l-.05.05a1,1,0,0,0-.15.21A1.32,1.32,0,0,0,437.57,269.23Zm1.49.59,0,0a.31.31,0,0,0-.05.1h0a0,0,0,0,0,0,0,.08.08,0,0,0,0,0l.13-.13Zm.09.07-.09-.08s0,0,.05-.05l.09.09Zm0,0L439,270v0l0,0h0l.06,0,.06,0h0l.06,0,.06,0Zm0,0,0,0,.17.19,0,0Zm.23.13-.18-.18.09-.09.05.05h0l0,0a.31.31,0,0,1,.05.1h0l0,.07Zm-.18-.19.08-.09a.27.27,0,0,0-.08-.07h0a.27.27,0,0,0-.08.07ZM439,266l.26-.25.31-.3a.39.39,0,0,1,.12.19s0,0,0,0h0v0a.54.54,0,0,1-.14.22l0,0h0a.51.51,0,0,1-.16.09l-.09,0h0l-.13,0Zm0,0,.56-.55,0,0a.59.59,0,0,0-.17-.1l-.08,0h0a.18.18,0,0,0-.09,0,.59.59,0,0,0-.17.1l-.05.05h0a.47.47,0,0,0-.12.19.39.39,0,0,0,0,.06h0a.25.25,0,0,0,0,.07.86.86,0,0,0,.11.19Z" fill="#fff" fill-rule="evenodd"/><path d="M441.93,265.64a2.1,2.1,0,0,1-.37,1.23,2.54,2.54,0,0,1-1,.85,2.63,2.63,0,0,1,1.14.9,2.25,2.25,0,0,1,.43,1.36,2.4,2.4,0,0,1-.82,1.91,3.09,3.09,0,0,1-2.12.71,3.14,3.14,0,0,1-2.14-.71,2.46,2.46,0,0,1-.8-1.91,2.34,2.34,0,0,1,.41-1.36,2.56,2.56,0,0,1,1.13-.91,2.41,2.41,0,0,1-1-.84,2.16,2.16,0,0,1-.35-1.23,2.4,2.4,0,0,1,.74-1.85,3.17,3.17,0,0,1,3.95,0A2.37,2.37,0,0,1,441.93,265.64ZM441,270a1.69,1.69,0,0,0-.49-1.26,1.76,1.76,0,0,0-3,1.26,1.64,1.64,0,0,0,.47,1.24,2.09,2.09,0,0,0,2.59,0A1.64,1.64,0,0,0,441,270Zm-1.76-5.88a1.53,1.53,0,0,0-1.13.43,1.78,1.78,0,0,0,0,2.3,1.5,1.5,0,0,0,1.13.43,1.48,1.48,0,0,0,1.12-.43,1.54,1.54,0,0,0,.43-1.14,1.58,1.58,0,0,0-.44-1.15A1.51,1.51,0,0,0,439.21,264.07Z" fill="#545454"/><path d="M485.54,274.47h-5.18v-7l-2.37.87v-5.32l5-1.88h2.55v2.59a5.79,5.79,0,0,1,.47-.84,5,5,0,0,1,7.65-.06,7,7,0,0,1,1.11,4.12h0v1.53a7.31,7.31,0,0,1-1.07,4.22,4.91,4.91,0,0,1-7.64.05h0a5.06,5.06,0,0,1-.51-.91Zm6.58-10.3-.07-.11a3,3,0,0,0-4.41,0l-.05.08a5.08,5.08,0,0,0-.65,2.65h0v1.88a5.42,5.42,0,0,0,.65,2.79h0l.07.11a2.94,2.94,0,0,0,4.4,0l0,0h0a5.17,5.17,0,0,0,.67-2.69h0v-1.93a5.21,5.21,0,0,0-.64-2.75Zm-.94.58,0,0h0a1.44,1.44,0,0,0-1.31-.65,1.42,1.42,0,0,0-1.3.66v0a4.14,4.14,0,0,0-.43,2.08v1.88a4.53,4.53,0,0,0,.43,2.22l0,0h0a1.43,1.43,0,0,0,1.29.67,1.41,1.41,0,0,0,1.29-.67h0a4.18,4.18,0,0,0,.44-2.11v-1.93A4.3,4.3,0,0,0,491.18,264.75Zm-8.82,7.72h1.18v-9.29h-.19L480,264.45v1.06l2.37-.87Z" fill="#fff" fill-rule="evenodd"/><path d="M483.54,272.47h-1.18v-7.83l-2.37.87v-1.06l3.36-1.27h.19Z" fill="#545454"/><path d="M492.77,268.53a5.4,5.4,0,0,1-.7,3.07,2.94,2.94,0,0,1-4.4,0,5.17,5.17,0,0,1-.73-2.93v-1.57a5.26,5.26,0,0,1,.7-3,3,3,0,0,1,4.41,0,5.06,5.06,0,0,1,.72,2.95Zm-1.17-1.61a4.3,4.3,0,0,0-.42-2.17,1.45,1.45,0,0,0-1.33-.68,1.4,1.4,0,0,0-1.31.68,4.14,4.14,0,0,0-.43,2.08v1.88a4.53,4.53,0,0,0,.43,2.22,1.47,1.47,0,0,0,1.32.71,1.41,1.41,0,0,0,1.29-.67,4.2,4.2,0,0,0,.45-2.12Z" fill="#545454"/><path d="M19.15,271h-6.8v-4.95h4.43v-3l5-1.88h2.54v2.59a5,5,0,0,1,.48-.84,4.53,4.53,0,0,1,3.84-1.83,4.52,4.52,0,0,1,3.8,1.77A7,7,0,0,1,33.57,267h0v1.53a7.31,7.31,0,0,1-1.07,4.22,4.5,4.5,0,0,1-3.84,1.85,4.55,4.55,0,0,1-3.81-1.8h0a5.1,5.1,0,0,1-.52-.91v2.59H19.15Zm-1.7-2.95h-3.1V269h3.1Zm3.7,4.4h1.18v-9.29h-.18l-3.37,1.27v1.06l2.37-.87Zm9.77-8.3-.07-.11a2.56,2.56,0,0,0-2.2-1,2.53,2.53,0,0,0-2.21,1,.35.35,0,0,0-.05.08,5.08,5.08,0,0,0-.65,2.65h0v1.88a5.23,5.23,0,0,0,.65,2.79h0l.07.11a2.55,2.55,0,0,0,2.19,1,2.52,2.52,0,0,0,2.2-1l0,0h0a5,5,0,0,0,.67-2.69h0c0-.11,0-.21,0-.32v-1.61a5.21,5.21,0,0,0-.65-2.75Zm-.94.58,0,0h0a1.63,1.63,0,0,0-2.61,0v0a4.26,4.26,0,0,0-.42,2.08v1.88a4.42,4.42,0,0,0,.43,2.22l0,0h0a1.43,1.43,0,0,0,1.29.67A1.41,1.41,0,0,0,30,271h0a4.19,4.19,0,0,0,.43-2.11v-1.93A4.43,4.43,0,0,0,30,264.75Z" fill="#fff" fill-rule="evenodd"/><path d="M17.45,269h-3.1v-.95h3.1Z" fill="#545454"/><path d="M22.33,272.47H21.15v-7.83l-2.37.87v-1.06l3.37-1.27h.18Z" fill="#545454"/><path d="M31.57,268.53a5.39,5.39,0,0,1-.71,3.07,2.52,2.52,0,0,1-2.2,1,2.55,2.55,0,0,1-2.19-1,5.09,5.09,0,0,1-.73-2.93v-1.57a5.26,5.26,0,0,1,.7-3,2.53,2.53,0,0,1,2.21-1,2.56,2.56,0,0,1,2.2,1,5.13,5.13,0,0,1,.72,2.95Zm-1.18-1.61a4.43,4.43,0,0,0-.41-2.17,1.46,1.46,0,0,0-1.33-.68,1.43,1.43,0,0,0-1.32.68,4.26,4.26,0,0,0-.42,2.08v1.88a4.42,4.42,0,0,0,.43,2.22,1.45,1.45,0,0,0,1.32.71A1.41,1.41,0,0,0,30,271a4.22,4.22,0,0,0,.44-2.12Z" fill="#545454"/><path d="M64,269h3.1v-.95H64Zm2.3-2.95H62V271h4.17a4.35,4.35,0,0,0,1.36,2.36h0a5.54,5.54,0,0,0,6.91,0A4.39,4.39,0,0,0,75.94,270a4.31,4.31,0,0,0-.69-2.37,4.22,4.22,0,0,0,.48-2,4.38,4.38,0,0,0-1.41-3.33,5.16,5.16,0,0,0-6.64,0,4.38,4.38,0,0,0-1.4,3.33C66.28,265.78,66.29,265.93,66.3,266.07Zm7.38.06a2.42,2.42,0,0,0,0-.47v0a2.34,2.34,0,0,0-.76-1.85l-.06-.06a2.83,2.83,0,0,0-1.9-.63,2.86,2.86,0,0,0-1.9.62l-.08.07a2.37,2.37,0,0,0-.75,1.85v0a2.71,2.71,0,0,0,0,.41v.05a2.06,2.06,0,0,0,.31.75.43.43,0,0,1,0,.07,2.62,2.62,0,0,0,.22.25,1.8,1.8,0,0,0,.2.19l.09.08h0a2.14,2.14,0,0,0,.41.25,2.51,2.51,0,0,0-.51.29l0,0h0l0,0a1.67,1.67,0,0,0-.28.25l-.07.07-.18.23a4,4,0,0,0-.22.4l-.06.18a2.31,2.31,0,0,0-.12.75v0a2.68,2.68,0,0,0,.19,1,2.26,2.26,0,0,0,.61.87L69,272h0a3.18,3.18,0,0,0,2.05.63,3.09,3.09,0,0,0,2-.64h0l.08-.07a2.42,2.42,0,0,0,.81-1.91v0a2.13,2.13,0,0,0-.13-.76,2.19,2.19,0,0,0-.29-.57c-.06-.07-.11-.15-.18-.22l-.08-.08a2.28,2.28,0,0,0-.33-.29h0a2.69,2.69,0,0,0-.55-.31,3,3,0,0,0,.42-.26h0a1.8,1.8,0,0,0,.29-.26,1.88,1.88,0,0,0,.22-.26l0-.07A2.13,2.13,0,0,0,73.68,266.13Zm-1.29.31c0-.06,0-.11.07-.17h0a1.89,1.89,0,0,0,.09-.6v0a1.6,1.6,0,0,0-.33-1h0l-.09-.11a1.54,1.54,0,0,0-1.11-.44,1.51,1.51,0,0,0-1.13.43l-.1.11a1.62,1.62,0,0,0-.32,1v0a2,2,0,0,0,.09.61,1.11,1.11,0,0,0,.07.16,1.27,1.27,0,0,0,.2.31l.06.06.12.12a1.54,1.54,0,0,0,1,.31h0a1.57,1.57,0,0,0,1-.3l.14-.13s0,0,.05-.05A1.69,1.69,0,0,0,72.39,266.44ZM70.75,266l.13.07.12,0h0l.09,0a.46.46,0,0,0,.15-.09h0l0,0a.68.68,0,0,0,.14-.22v0h0a.08.08,0,0,0,0,0,.62.62,0,0,0-.12-.19l-.31.3Zm0,0,.56-.55,0,0a.52.52,0,0,0-.18-.1.12.12,0,0,0-.07,0h0a.18.18,0,0,0-.09,0,.59.59,0,0,0-.17.1l-.06.05h0a.62.62,0,0,0-.12.19.18.18,0,0,0,0,.06h0a.11.11,0,0,0,0,.07.59.59,0,0,0,.11.19Zm1.53,2.74-.23-.2a1.81,1.81,0,0,0-1-.29h0a1.88,1.88,0,0,0-1,.29l-.22.19,0,.05a1.66,1.66,0,0,0-.16.21,1,1,0,0,0-.14.29h0a2.09,2.09,0,0,0-.12.72v0a1.75,1.75,0,0,0,.35,1.09h0l.1.12a1.83,1.83,0,0,0,1.31.45,1.78,1.78,0,0,0,1.29-.45l.11-.12h0a1.65,1.65,0,0,0,.36-1.09v0a1.94,1.94,0,0,0-.12-.7h0a1.4,1.4,0,0,0-.15-.3,1.81,1.81,0,0,0-.18-.21A.08.08,0,0,0,72.27,268.69Zm-1.42,1.13,0,0,0,.1h0v0l0,0,.13-.13Zm.1.09-.13.13v0l0,0h0l0,0,.07,0h0l0,0,.07,0Zm0,0,0,0,.18.19,0,0Zm-.09-.09.09.08,0,0-.08-.09Zm.15,0,.18.18h0a.25.25,0,0,0,0-.07h0l0-.1,0,0h0l-.05-.05Zm0,0-.08-.09.07-.07h0l.08.07Z" fill="#fff" fill-rule="evenodd"/><path d="M67.1,269H64v-.95h3.1Z" fill="#545454"/><path d="M73.73,265.64a2.1,2.1,0,0,1-.37,1.23,2.54,2.54,0,0,1-1,.85,2.63,2.63,0,0,1,1.14.9,2.31,2.31,0,0,1,.42,1.36,2.42,2.42,0,0,1-.81,1.91,3.55,3.55,0,0,1-4.26,0,2.61,2.61,0,0,1-.4-3.27,2.65,2.65,0,0,1,1.14-.91,2.34,2.34,0,0,1-1-.84,2.17,2.17,0,0,1-.36-1.23,2.37,2.37,0,0,1,.75-1.85,2.81,2.81,0,0,1,2-.69,2.78,2.78,0,0,1,2,.69A2.34,2.34,0,0,1,73.73,265.64Zm-1,4.31a1.82,1.82,0,0,0-3-1.27,1.73,1.73,0,0,0-.48,1.27,1.68,1.68,0,0,0,.46,1.24,1.83,1.83,0,0,0,1.31.45,1.78,1.78,0,0,0,1.29-.45A1.67,1.67,0,0,0,72.77,270ZM71,264.07a1.51,1.51,0,0,0-1.13.43,1.78,1.78,0,0,0,0,2.3,1.5,1.5,0,0,0,1.13.43,1.48,1.48,0,0,0,1.12-.43,1.75,1.75,0,0,0,0-2.29A1.54,1.54,0,0,0,71,264.07Z" fill="#545454"/><path d="M113.45,266.07a6.68,6.68,0,0,1,1.27-2.72h0a6,6,0,0,1,4.77-2.13h2.24v4.63l.11.12a5.72,5.72,0,0,1-.11,7.12,4.67,4.67,0,0,1-3.56,1.51,4.6,4.6,0,0,1-3.7-1.76h0l-.13-.18-.47.54.09-1.11a6,6,0,0,1-.46-1.07H109v-4.95Zm-2.45,2V269h3.09v-.95Zm8.73-3.85v-1h-.23a5,5,0,0,0-1.77.33,3.56,3.56,0,0,0-1.14.72,3.39,3.39,0,0,0-.31.34,3,3,0,0,0-.29.41,4.58,4.58,0,0,0-.47,1.05c0,.11-.07.22-.1.33a1,1,0,0,1,0,.17c0,.19-.07.38-.1.58a8.52,8.52,0,0,0-.08.92v.16a2.44,2.44,0,0,0,0,.27v.59a4.29,4.29,0,0,0,.46,1.93s0,.05,0,.08a3,3,0,0,0,.32.47h0a2.86,2.86,0,0,0,4.23.16l0,0h0a3.27,3.27,0,0,0,.75-2.2v-.05a3.33,3.33,0,0,0-.71-2.19h0a2.36,2.36,0,0,0-1.55-.83h-.57a3.18,3.18,0,0,0-.72.13,2.46,2.46,0,0,0-.89.51l-.19.2c0-.14,0-.27,0-.39a3.7,3.7,0,0,1,.43-1.24,2.08,2.08,0,0,1,.24-.34h0a2.52,2.52,0,0,1,1.25-.87,3.76,3.76,0,0,1,1.16-.19Zm-3.22,5.93a2.59,2.59,0,0,0,.35.75h0s0,0,0,0a1.55,1.55,0,0,0,1.28.7,1.48,1.48,0,0,0,1.24-.59l0,0h0a2.4,2.4,0,0,0,.43-1.49v-.05a2.34,2.34,0,0,0-.44-1.45h0l0,0a1.45,1.45,0,0,0-1-.58H118a1.93,1.93,0,0,0-.8.26l-.15.1-.06,0a1.86,1.86,0,0,0-.58.71.77.77,0,0,0-.07.16v.43A3.83,3.83,0,0,0,116.51,270.15Zm1.32-.33Z" fill="#fff" fill-rule="evenodd"/><path d="M114.09,269H111v-.95h3.09Z" fill="#545454"/><path d="M119.73,263.22v1h-.21a3.13,3.13,0,0,0-2.19.81,3.45,3.45,0,0,0-.94,2.22,2.51,2.51,0,0,1,2-.84,2.38,2.38,0,0,1,1.92.85,3.29,3.29,0,0,1,.72,2.2,3.25,3.25,0,0,1-.78,2.28,2.86,2.86,0,0,1-4.23-.16,4,4,0,0,1-.83-2.63v-.45a6,6,0,0,1,1.09-3.89,4,4,0,0,1,3.24-1.39Zm-1.54,4.17a1.89,1.89,0,0,0-1.11.36,1.85,1.85,0,0,0-.71.91v.43a3,3,0,0,0,.52,1.84,1.55,1.55,0,0,0,1.28.7,1.48,1.48,0,0,0,1.24-.59,2.77,2.77,0,0,0,0-3.06A1.45,1.45,0,0,0,118.19,267.39Z" fill="#545454"/><path d="M159.09,269v-.95H156V269Zm.53-2.95H154V271h3.59l-.22.35h.32v1h4.21v2.14h5.18v-2.14h1.28v-5h-1.28v-6.14h-4.34Zm.07,3.56v.7h4.21v2.14h1.18v-2.14h1.28v-1h-1.28v-6.14h-1.25Zm1.33-.26h2.88v-4.53l-.14.25Z" fill="#fff" fill-rule="evenodd"/><path d="M159.09,269H156v-.95h3.09Z" fill="#545454"/><path d="M165.08,269.37h1.28v1h-1.28v2.14H163.9v-2.14h-4.21v-.7l4.14-6.4h1.25Zm-4.06,0h2.88v-4.53l-.14.25Z" fill="#545454"/><path d="M205,266.07H201V271h4.12v1.25L204,273.51h1.15v1h10.06v-5h-2.11a6.41,6.41,0,0,0,1.68-3.93,4.26,4.26,0,0,0-1.41-3.28,4.87,4.87,0,0,0-3.37-1.2,5.07,5.07,0,0,0-3.59,1.34h0A4.71,4.71,0,0,0,205,266Zm2-.12h1.17a2,2,0,0,1,.39-1.28h0l.09-.1a1.81,1.81,0,0,1,1.37-.5,1.51,1.51,0,0,1,1.16.46l.1.11h0a1.65,1.65,0,0,1,.34.94v.14a2.15,2.15,0,0,1-.27,1,6.92,6.92,0,0,1-1,1.31l-3.2,3.56v.84h6.06v-1h-4.64l2.47-2.68.07-.07h0a9.93,9.93,0,0,0,1.13-1.49h0a3.55,3.55,0,0,0,.53-1.53v-.14a2.3,2.3,0,0,0-.75-1.8l0,0a2.92,2.92,0,0,0-2-.65,3.09,3.09,0,0,0-2.13.72h0l-.08.07-.06.06A2.77,2.77,0,0,0,207,266ZM203,268.07V269h3.09v-.95Z" fill="#fff" fill-rule="evenodd"/><path d="M206.09,269H203v-.95h3.09Z" fill="#545454"/><path d="M213.18,272.47h-6.06v-.84l3.2-3.56a6.92,6.92,0,0,0,1-1.31,2.15,2.15,0,0,0,.27-1,1.64,1.64,0,0,0-.44-1.19,1.51,1.51,0,0,0-1.16-.46,1.81,1.81,0,0,0-1.37.5,1.9,1.9,0,0,0-.48,1.38H207a2.73,2.73,0,0,1,.81-2.06,3.05,3.05,0,0,1,2.21-.79,2.9,2.9,0,0,1,2,.68,2.3,2.3,0,0,1,.75,1.8,5.29,5.29,0,0,1-1.74,3.25l-2.47,2.68h4.64Z" fill="#545454"/><path d="M240.75,272.79a7,7,0,0,1-1.11-4.08h0v-1.58a7.22,7.22,0,0,1,1.07-4.19,5,5,0,0,1,7.65-.06,7,7,0,0,1,1.11,4.12h0v1.53a7.31,7.31,0,0,1-1.07,4.22,4.91,4.91,0,0,1-7.64.05Zm6.07-8.62-.07-.11a3,3,0,0,0-4.41,0,.35.35,0,0,1-.05.08,5.08,5.08,0,0,0-.65,2.65h0v1.88a5.42,5.42,0,0,0,.65,2.79h0a.44.44,0,0,0,.08.11,2.93,2.93,0,0,0,4.39,0l0,0h0a5.17,5.17,0,0,0,.67-2.69h0v-1.93a5.21,5.21,0,0,0-.64-2.75Zm-.94.58,0,0h0a1.44,1.44,0,0,0-1.31-.65,1.42,1.42,0,0,0-1.3.66v0a4.14,4.14,0,0,0-.43,2.08v1.88a4.53,4.53,0,0,0,.43,2.22l0,0h0a1.44,1.44,0,0,0,1.29.67,1.41,1.41,0,0,0,1.29-.67h0a4.18,4.18,0,0,0,.44-2.11v-1.93A4.3,4.3,0,0,0,245.88,264.75Z" fill="#fff" fill-rule="evenodd"/><path d="M247.47,268.53a5.4,5.4,0,0,1-.7,3.07,2.93,2.93,0,0,1-4.39,0,5.09,5.09,0,0,1-.74-2.93v-1.57a5.26,5.26,0,0,1,.7-3,3,3,0,0,1,4.41,0,5.06,5.06,0,0,1,.72,2.95Zm-1.17-1.61a4.3,4.3,0,0,0-.42-2.17,1.45,1.45,0,0,0-1.33-.68,1.4,1.4,0,0,0-1.31.68,4.14,4.14,0,0,0-.43,2.08v1.88a4.53,4.53,0,0,0,.43,2.22,1.47,1.47,0,0,0,1.32.71,1.41,1.41,0,0,0,1.29-.67,4.1,4.1,0,0,0,.45-2.12Z" fill="#545454"/><path d="M160.76,495.35a.41.41,0,0,1-.7-.24l-1.23-9.51a.41.41,0,0,1,.54-.45l8.11,2.82a.42.42,0,0,1,.15.69Z" fill="#03a6a0"/><path d="M240.31,70.6a4.17,4.17,0,0,1-.47-2,4.41,4.41,0,0,1,1.39-3.33,4.83,4.83,0,0,1,3.33-1.21,4.78,4.78,0,0,1,3.31,1.21,4.34,4.34,0,0,1,1.41,3.33,4.1,4.1,0,0,1-.48,2,4.24,4.24,0,0,1,.7,2.37,4.4,4.4,0,0,1-1.5,3.41,5.52,5.52,0,0,1-6.9,0h0a4.47,4.47,0,0,1-1.46-3.4A4.37,4.37,0,0,1,240.31,70.6Z" fill="#fff" fill-rule="evenodd"/><path d="M247.28,68.64a2.1,2.1,0,0,1-.37,1.23,2.54,2.54,0,0,1-1,.85,2.63,2.63,0,0,1,1.14.9A2.25,2.25,0,0,1,247.5,73a2.42,2.42,0,0,1-.81,1.91,3.57,3.57,0,0,1-4.27,0,2.46,2.46,0,0,1-.8-1.91,2.42,2.42,0,0,1,.41-1.36,2.56,2.56,0,0,1,1.13-.91,2.41,2.41,0,0,1-1-.84,2.16,2.16,0,0,1-.35-1.23,2.41,2.41,0,0,1,.74-1.85,3.17,3.17,0,0,1,3.95,0A2.38,2.38,0,0,1,247.28,68.64Zm-1,4.31a1.69,1.69,0,0,0-.49-1.26,1.76,1.76,0,0,0-3,1.26,1.64,1.64,0,0,0,.47,1.24,2.09,2.09,0,0,0,2.59,0A1.64,1.64,0,0,0,246.32,73Zm-1.76-5.88a1.49,1.49,0,0,0-1.12.43,1.54,1.54,0,0,0-.43,1.16,1.57,1.57,0,0,0,.42,1.14,1.5,1.5,0,0,0,1.13.43,1.48,1.48,0,0,0,1.12-.43,1.54,1.54,0,0,0,.43-1.14,1.58,1.58,0,0,0-.44-1.15A1.51,1.51,0,0,0,244.56,67.07Z" fill="#545454"/><path d="M272,217.77h-2.9l2.1-3.18-1.36-8.06h2.7l.71,5.39,3.13-5.39h2.79ZM284.82,211h-5.58v-2.11h5.58Zm4.7,3.8h-2.64v-8.23h2.64Zm.07-9.4h-2.78v-2h2.78Zm10.68,9.4h-2.65v-4.08c0-.34,0-.67-.05-1a2.08,2.08,0,0,0-.18-.74.82.82,0,0,0-.43-.39,2,2,0,0,0-.78-.13,2.43,2.43,0,0,0-.74.12,3.52,3.52,0,0,0-.79.38v5.83H292v-8.23h2.64v.91a6.35,6.35,0,0,1,1.34-.84,3.45,3.45,0,0,1,1.45-.3,2.74,2.74,0,0,1,2.08.78,3.22,3.22,0,0,1,.75,2.32Zm7.69-.08a6,6,0,0,1-.9.17,9.24,9.24,0,0,1-1.16.07,3.55,3.55,0,0,1-2.3-.63,2.65,2.65,0,0,1-.74-2.13v-3.84h-1.09v-1.79h1.09v-2.35h2.63v2.35H308v1.79h-2.47v2.91c0,.29,0,.54,0,.76a1.58,1.58,0,0,0,.12.58.89.89,0,0,0,.36.41,1.69,1.69,0,0,0,.76.14,2.08,2.08,0,0,0,.53-.09,1.76,1.76,0,0,0,.47-.16H308Zm9.68-3.55h-6a1.89,1.89,0,0,0,.73,1.48,3.32,3.32,0,0,0,2,.51,4.47,4.47,0,0,0,1.62-.3,5.26,5.26,0,0,0,1.24-.64h.29v2.11a9.36,9.36,0,0,1-1.68.52,8.62,8.62,0,0,1-1.75.16,5.76,5.76,0,0,1-3.8-1.11,3.92,3.92,0,0,1-1.32-3.17,4.23,4.23,0,0,1,1.25-3.22,4.75,4.75,0,0,1,3.43-1.2,4.06,4.06,0,0,1,3,1,3.94,3.94,0,0,1,1,2.92ZM315,209.58a1.81,1.81,0,0,0-.41-1.24,1.57,1.57,0,0,0-1.21-.42,1.91,1.91,0,0,0-1.25.4,1.66,1.66,0,0,0-.55,1.26Zm10.45-.54h-.24a2.27,2.27,0,0,0-.54-.09c-.25,0-.46,0-.62,0a6,6,0,0,0-1,.07,5.4,5.4,0,0,0-.93.25v5.51H319.5v-8.23h2.64v1.21a5.35,5.35,0,0,1,1.52-1,3.21,3.21,0,0,1,1.18-.25h.32l.31,0Zm5.78,5.93a7.13,7.13,0,0,1-2-.25,4.37,4.37,0,0,1-1.55-.79,3.69,3.69,0,0,1-1-1.35,4.67,4.67,0,0,1-.36-1.9,4.84,4.84,0,0,1,.38-2,3.7,3.7,0,0,1,1.08-1.38,4.37,4.37,0,0,1,1.54-.77,6.74,6.74,0,0,1,1.8-.24,5.9,5.9,0,0,1,1.56.19A7.62,7.62,0,0,1,334,207v2.25h-.37l-.37-.31a4.07,4.07,0,0,0-.53-.34,2.75,2.75,0,0,0-.66-.26,2.67,2.67,0,0,0-.84-.11,2,2,0,0,0-1.62.67,2.7,2.7,0,0,0-.57,1.82,2.56,2.56,0,0,0,.58,1.8,2.19,2.19,0,0,0,1.66.61,3.06,3.06,0,0,0,.89-.11,3.32,3.32,0,0,0,.67-.27,3.8,3.8,0,0,0,.44-.31c.13-.1.24-.21.35-.31H334v2.25a7.16,7.16,0,0,1-1.3.46A5.81,5.81,0,0,1,331.25,215Zm12.64-3.84h-6a1.89,1.89,0,0,0,.73,1.48,3.32,3.32,0,0,0,2,.51,4.47,4.47,0,0,0,1.62-.3,5.26,5.26,0,0,0,1.24-.64h.29v2.11a9.36,9.36,0,0,1-1.68.52,8.69,8.69,0,0,1-1.75.16,5.74,5.74,0,0,1-3.8-1.11,3.92,3.92,0,0,1-1.32-3.17,4.23,4.23,0,0,1,1.25-3.22,4.75,4.75,0,0,1,3.43-1.2,4.06,4.06,0,0,1,3,1,3.94,3.94,0,0,1,1,2.92Zm-2.62-1.55a1.81,1.81,0,0,0-.41-1.24,1.57,1.57,0,0,0-1.21-.42,1.91,1.91,0,0,0-1.25.4,1.66,1.66,0,0,0-.55,1.26Zm13.07.95a5.17,5.17,0,0,1-.32,1.85,3.88,3.88,0,0,1-.81,1.38,3.51,3.51,0,0,1-1.19.86,3.46,3.46,0,0,1-1.43.3,4.15,4.15,0,0,1-1.2-.16,4.65,4.65,0,0,1-1-.42v3.43h-2.64V206.53h2.64v.86a6.28,6.28,0,0,1,1.24-.79,3.37,3.37,0,0,1,1.46-.3,2.83,2.83,0,0,1,2.39,1.13A5,5,0,0,1,354.34,210.53Zm-2.72.05a2.93,2.93,0,0,0-.41-1.74,1.51,1.51,0,0,0-1.3-.54,2.59,2.59,0,0,0-.76.11,3.4,3.4,0,0,0-.76.32v4.14a1.76,1.76,0,0,0,.57.13,3.89,3.89,0,0,0,.59,0,1.93,1.93,0,0,0,1.56-.6A2.85,2.85,0,0,0,351.62,210.58Zm9.88,4.1a6,6,0,0,1-.9.17,9.37,9.37,0,0,1-1.16.07,3.55,3.55,0,0,1-2.3-.63,2.65,2.65,0,0,1-.74-2.13v-3.84h-1.09v-1.79h1.09v-2.35H359v2.35h2.47v1.79H359v2.91c0,.29,0,.54,0,.76a1.58,1.58,0,0,0,.12.58.89.89,0,0,0,.36.41,1.69,1.69,0,0,0,.76.14,2.15,2.15,0,0,0,.53-.09,1.76,1.76,0,0,0,.47-.16h.22ZM378.15,209h-9.36v-2h9.36Zm0,3.85h-9.36v-2h9.36ZM395,214.76h-8.56V213c.65-.47,1.3-1,2-1.5s1.18-1,1.58-1.38a7.43,7.43,0,0,0,1.26-1.5,2.44,2.44,0,0,0,.37-1.26,1.43,1.43,0,0,0-.48-1.15,2.08,2.08,0,0,0-1.38-.41,4.21,4.21,0,0,0-1.42.28,6.58,6.58,0,0,0-1.37.71h-.24v-2.42a10.1,10.1,0,0,1,1.53-.46,9.44,9.44,0,0,1,2-.22,5,5,0,0,1,3.13.86,2.94,2.94,0,0,1,1.07,2.43,4,4,0,0,1-.52,2,7.87,7.87,0,0,1-1.57,1.91c-.45.41-.89.79-1.34,1.14l-1,.72H395Z" fill="#fff"/><path d="M272,217.77v2a2,2,0,0,0,1.68-.92Zm-2.9,0-1.67-1.1a2,2,0,0,0,1.67,3.1Zm2.1-3.18,1.67,1.11a2.09,2.09,0,0,0,.3-1.44Zm-1.36-8.06v-2a2,2,0,0,0-1.53.71,2,2,0,0,0-.44,1.62Zm2.7,0,2-.26a2,2,0,0,0-2-1.74Zm.71,5.39-2,.26a2,2,0,0,0,3.72.75Zm3.13-5.39v-2a2,2,0,0,0-1.73,1Zm2.79,0,1.68,1.08a2,2,0,0,0-1.68-3.08ZM272,215.77h-2.9v4H272Zm-1.23,3.1,2.1-3.17-3.34-2.21-2.1,3.18Zm2.4-4.61-1.36-8.06-3.94.66,1.35,8.07Zm-3.33-5.73h2.7v-4h-2.7Zm.71-1.74.71,5.39,4-.52-.71-5.39Zm4.43,6.14,3.13-5.39-3.46-2-3.13,5.39Zm1.4-4.4h2.79v-4h-2.79Zm1.1-3.08L270.3,216.7l3.37,2.15,7.17-11.24Zm7.35,5.51v2a2,2,0,0,0,2-2Zm-5.58,0h-2a2,2,0,0,0,2,2Zm0-2.11v-2a2,2,0,0,0-2,2Zm5.58,0h2a2,2,0,0,0-2-2Zm0,.11h-5.58v4h5.58Zm-3.58,2v-2.11h-4V211Zm-2-.11h5.58v-4h-5.58Zm3.58-2V211h4v-2.11Zm6.7,5.91v2a2,2,0,0,0,2-2Zm-2.64,0h-2a2,2,0,0,0,2,2Zm0-8.23v-2a2,2,0,0,0-2,2Zm2.64,0h2a2,2,0,0,0-2-2Zm.07-1.17v2a2,2,0,0,0,2-2Zm-2.78,0h-2a2,2,0,0,0,2,2Zm0-2v-2a2,2,0,0,0-2,2Zm2.78,0h2a2,2,0,0,0-2-2Zm-.07,9.4h-2.64v4h2.64Zm-.64,2v-8.23h-4v8.23Zm-2-6.23h2.64v-4h-2.64Zm.64-2v8.23h4v-8.23Zm2.07-3.17h-2.78v4h2.78Zm-.78,2v-2h-4v2Zm-2,0h2.78v-4h-2.78Zm.78-2v2h4v-2Zm12.68,11.4v2a2,2,0,0,0,2-2Zm-2.65,0h-2a2,2,0,0,0,2,2Zm-.05-5.07-2,.2h0Zm-.18-.74,1.77-.93v0Zm-.43-.39-.82,1.82h0Zm-1.52,0-.59-1.91h0Zm-.79.38-1-1.73a2,2,0,0,0-1,1.73Zm0,5.83v2a2,2,0,0,0,2-2Zm-2.64,0h-2a2,2,0,0,0,2,2Zm0-8.23v-2a2,2,0,0,0-2,2Zm2.64,0h2a2,2,0,0,0-2-2Zm0,.91h-2a2,2,0,0,0,3.23,1.57Zm1.34-.84-.82-1.83h0Zm3.53.48-1.44,1.39h0Zm.75,5.68h-2.65v4h2.65Zm-.65,2v-4.08h-4v4.08Zm0-4.08q0-.6-.06-1.2l-4,.41a6.85,6.85,0,0,1,0,.79Zm-.06-1.2a3.92,3.92,0,0,0-.4-1.46l-3.53,1.87,0-.08,0-.06a0,0,0,0,0,0,0s0,0,0,.05,0,.07,0,.12Zm-.41-1.48a2.81,2.81,0,0,0-1.39-1.27l-1.6,3.66a1.14,1.14,0,0,1-.3-.19,1.81,1.81,0,0,1-.23-.29Zm-1.37-1.27a3.94,3.94,0,0,0-1.6-.3v4h.09l-.13-.05Zm-1.6-.3a4.51,4.51,0,0,0-1.33.21l1.19,3.82.14,0Zm-1.34.22a5.76,5.76,0,0,0-1.21.55l2,3.45a1.77,1.77,0,0,1,.38-.19Zm-2.19,2.28v5.83h4v-5.83Zm2,3.83H292v4h2.64Zm-.64,2v-8.23h-4v8.23Zm-2-6.23h2.64v-4H292Zm.64-2v.91h4v-.91Zm3.23,2.48a4.57,4.57,0,0,1,.94-.59l-1.65-3.64a8.28,8.28,0,0,0-1.75,1.08Zm.93-.59a1.46,1.46,0,0,1,.63-.12v-4a5.56,5.56,0,0,0-2.27.47Zm.63-.12c.48,0,.6.13.64.17l2.88-2.78a4.78,4.78,0,0,0-3.52-1.39Zm.64.17s.19.2.19.93h4a5.14,5.14,0,0,0-1.32-3.71Zm.19.93v5.36h4V209.4Zm9.69,5.28.5,1.94a2,2,0,0,0,1.5-1.94Zm-.9.17-.24-2h0Zm-3.46-.56-1.28,1.54h0Zm-.74-6h2a2,2,0,0,0-2-2Zm-1.09,0h-2a2,2,0,0,0,2,2Zm0-1.79v-2a2,2,0,0,0-2,2Zm1.09,0v2a2,2,0,0,0,2-2Zm0-2.35v-2a2,2,0,0,0-2,2Zm2.63,0h2a2,2,0,0,0-2-2Zm0,2.35h-2a2,2,0,0,0,2,2Zm2.47,0h2a2,2,0,0,0-2-2Zm0,1.79v2a2,2,0,0,0,2-2Zm-2.47,0v-2a2,2,0,0,0-2,2Zm.13,4.25,1.85-.75v0Zm.36.41-1,1.71.06,0Zm1.29.05-.5-1.93h0Zm.47-.16v-2a2.06,2.06,0,0,0-1,.25Zm.22,0h2a2,2,0,0,0-2-2Zm-.5-.12a4.89,4.89,0,0,1-.64.12l.49,4a8.65,8.65,0,0,0,1.15-.22Zm-.67.12a6.26,6.26,0,0,1-.89,0v4a10.8,10.8,0,0,0,1.44-.09Zm-.89,0a1.87,1.87,0,0,1-1-.17l-2.55,3.09a5.56,5.56,0,0,0,3.57,1.08Zm-1-.16c.07.06.08.1.05,0a2.09,2.09,0,0,1-.07-.63h-4a4.61,4.61,0,0,0,1.46,3.67Zm0-.6v-3.84h-4v3.84Zm-2-5.84h-1.09v4h1.09Zm.91,2v-1.79h-4v1.79Zm-2,.21h1.09v-4h-1.09Zm3.09-2v-2.35h-4v2.35Zm-2-.35h2.63v-4h-2.63Zm.63-2v2.35h4v-2.35Zm2,4.35H308v-4h-2.47Zm.47-2v1.79h4v-1.79Zm2-.21h-2.47v4H308Zm-4.47,2v2.91h4v-2.91Zm0,2.91c0,.3,0,.57,0,.8l4-.09c0-.19,0-.43,0-.71Zm0,.8a3.52,3.52,0,0,0,.28,1.32l3.68-1.57a.43.43,0,0,1,0,.16Zm.26,1.28a2.89,2.89,0,0,0,1.19,1.38l2.06-3.43a1.51,1.51,0,0,1,.25.22.88.88,0,0,1,.21.34Zm1.25,1.41a3.49,3.49,0,0,0,1.73.4v-4h-.06a1.27,1.27,0,0,1,.27.11Zm1.73.4a4.49,4.49,0,0,0,1.05-.15l-1-3.87-.08,0h.06Zm1-.15a3.78,3.78,0,0,0,.93-.35l-1.94-3.5.08,0,0,0h0l-.09,0Zm0-.1H308v-4h-.22Zm-1.78-2v1.81h4v-1.81Zm11.68-1.74v2a2,2,0,0,0,2-2Zm-6,0v-2a2,2,0,0,0-1.46.63,2,2,0,0,0-.54,1.49Zm.73,1.48-1.21,1.59h0Zm4.86-.43v-2a2,2,0,0,0-1.21.4Zm.29,0h2a2,2,0,0,0-2-2Zm0,2.11.75,1.86a2,2,0,0,0,1.25-1.86Zm-7.3-6.82,1.38,1.45h0Zm6.44-.18-1.42,1.41h0ZM315,209.58v2a2,2,0,0,0,2-2.05Zm-3.42,0-2-.13a2,2,0,0,0,.53,1.5,2,2,0,0,0,1.46.63Zm6-.45h-6v4h6Zm-8,2.12a3.92,3.92,0,0,0,1.52,2.95l2.42-3.18s0,0,0,0a.05.05,0,0,1,0,0s0,0,0,0,0,0,0-.09Zm1.53,3a5.23,5.23,0,0,0,3.2.91v-4a3.05,3.05,0,0,1-.66-.06c-.13,0-.16-.07-.14-.05Zm3.2.91a6.47,6.47,0,0,0,2.34-.43L315.24,211a2.32,2.32,0,0,1-.9.17Zm2.34-.43a7.33,7.33,0,0,0,1.73-.92L316,210.58a2.88,2.88,0,0,1-.75.37Zm.52-.51h.29v-4h-.29Zm-1.71-2v2.11h4v-2.11Zm1.26.26a7.31,7.31,0,0,1-1.34.41l.8,3.92a11.17,11.17,0,0,0,2-.62Zm-1.34.41a6.56,6.56,0,0,1-1.35.12v4a10.82,10.82,0,0,0,2.15-.2Zm-1.35.12a3.83,3.83,0,0,1-2.51-.64L309,215.39a7.67,7.67,0,0,0,5.09,1.58Zm-2.51-.64a1.93,1.93,0,0,1-.61-1.64h-4a5.9,5.9,0,0,0,2,4.7Zm-.61-1.64a2.25,2.25,0,0,1,.63-1.77l-2.76-2.9a6.23,6.23,0,0,0-1.87,4.67Zm.63-1.77a2.77,2.77,0,0,1,2.05-.65v-4a6.72,6.72,0,0,0-4.81,1.75Zm2.05-.65a2.14,2.14,0,0,1,1.59.43l2.84-2.82a6.07,6.07,0,0,0-4.43-1.61Zm1.6.44a2,2,0,0,1,.42,1.5h4a5.92,5.92,0,0,0-1.59-4.33Zm.42,1.5v.92h4v-.92Zm1.38-.68a3.8,3.8,0,0,0-.94-2.55l-2.93,2.72a.53.53,0,0,1-.1-.14.12.12,0,0,1,0-.08s0,0,0,.16Zm-.94-2.55a3.56,3.56,0,0,0-2.68-1.06v4c.11,0,.12,0,.06,0a.89.89,0,0,1-.31-.22Zm-2.68-1.06a3.89,3.89,0,0,0-2.5.84l2.51,3.11-.06,0,0,0h.09Zm-2.5.84a3.65,3.65,0,0,0-1.29,2.69l4,.27c0-.12,0-.14,0-.09l-.06.11-.13.13Zm.7,4.82H315v-4H311.6ZM325.47,209v2a2,2,0,0,0,2-2Zm-.24,0-.65,1.89a2.06,2.06,0,0,0,.65.11Zm-3.09.21-.66-1.89a2,2,0,0,0-1.34,1.89Zm0,5.51v2a2,2,0,0,0,2-2Zm-2.64,0h-2a2,2,0,0,0,2,2Zm0-8.23v-2a2,2,0,0,0-2,2Zm2.64,0h2a2,2,0,0,0-2-2Zm0,1.21h-2a2,2,0,0,0,3.3,1.52Zm1.52-1,.7,1.87h0Zm1.81-.22h2a2,2,0,0,0-1.78-2Zm0,.51h-.24v4h.24Zm.42.11a4.62,4.62,0,0,0-1-.19l-.32,4h.11l-.06,0Zm-1-.19-.78,0v4c.09,0,.24,0,.46,0Zm-.78,0a7.18,7.18,0,0,0-1.33.1l.67,3.94a4.88,4.88,0,0,1,.66,0Zm-1.33.1a7.09,7.09,0,0,0-1.26.33l1.33,3.77a4.59,4.59,0,0,1,.6-.16Zm-2.6,2.22v5.51h4v-5.51Zm2,3.51H319.5v4h2.64Zm-.64,2v-8.23h-4v8.23Zm-2-6.23h2.64v-4H319.5Zm.64-2v1.21h4v-1.21Zm3.3,2.73a4,4,0,0,1,.92-.64l-1.4-3.74a7.41,7.41,0,0,0-2.12,1.34Zm.94-.64a1.24,1.24,0,0,1,.46-.12v-4a5.32,5.32,0,0,0-1.9.38Zm.46-.12h.24l.16-4h-.4Zm.24,0h.17l.44-4-.45,0Zm-1.61-2V209h4v-2.51Zm5.81,8.19-.56,1.92h0Zm-1.55-.79-1.27,1.54h0Zm-1-5.24-1.81-.84h0Zm1.08-1.38-1.23-1.58h0ZM334,207h2a2,2,0,0,0-1.14-1.8Zm0,2.25v2a2,2,0,0,0,2-2Zm-.37,0-1.3,1.52a2,2,0,0,0,1.3.48Zm-.37-.31L332,210.44l0,0Zm-.53-.34-.95,1.76h0Zm-.66-.26-.59,1.91h0Zm-2.46.56-1.53-1.29h0Zm0,3.62-1.45,1.37h0Zm2.55.5.54,1.93h0Zm.67-.27,1,1.73h0Zm.44-.31,1.29,1.53Zm.35-.31v-2a2,2,0,0,0-1.38.55Zm.37,0h2a2,2,0,0,0-2-2Zm0,2.25.85,1.81a2,2,0,0,0,1.15-1.81Zm-1.3.46-.48-1.94h0ZM331.25,213a5.26,5.26,0,0,1-1.42-.17l-1.11,3.84a9.14,9.14,0,0,0,2.53.33Zm-1.42-.17a2.14,2.14,0,0,1-.84-.43l-2.52,3.11a6.26,6.26,0,0,0,2.25,1.16Zm-.83-.42a1.62,1.62,0,0,1-.45-.61l-3.66,1.62a5.55,5.55,0,0,0,1.57,2.08Zm-.45-.61a2.56,2.56,0,0,1-.19-1.09h-4a6.75,6.75,0,0,0,.53,2.71Zm-.19-1.09a2.8,2.8,0,0,1,.2-1.16l-3.64-1.66a6.74,6.74,0,0,0-.56,2.82Zm.19-1.15a1.76,1.76,0,0,1,.52-.66l-2.5-3.13a5.75,5.75,0,0,0-1.64,2.11Zm.5-.65a2.44,2.44,0,0,1,.84-.41l-1.07-3.85a6.23,6.23,0,0,0-2.23,1.11Zm.84-.41a4.75,4.75,0,0,1,1.27-.17v-4a8.8,8.8,0,0,0-2.34.32Zm1.27-.17a4.49,4.49,0,0,1,1.06.12l1-3.87a8.24,8.24,0,0,0-2.06-.25Zm1.06.12a5.36,5.36,0,0,1,1,.35l1.72-3.61a8.62,8.62,0,0,0-1.68-.61ZM332,207v2.25h4V207Zm2,.25h-.37v4H334Zm.93.48-.42-.35-2.5,3.12.32.27Zm-.4-.33a4.69,4.69,0,0,0-.86-.56l-1.88,3.52.19.12Zm-.86-.56a5.65,5.65,0,0,0-1-.43l-1.1,3.85a1.42,1.42,0,0,1,.26.1Zm-1-.42a5.07,5.07,0,0,0-1.43-.19v4a1.15,1.15,0,0,1,.25,0Zm-1.43-.19a4,4,0,0,0-3.15,1.38l3.05,2.58,0,0,0,0h.16Zm-3.15,1.38a4.68,4.68,0,0,0-1,3.11h4a1.2,1.2,0,0,1,.06-.44s0-.06,0-.07l0,0Zm-1,3.11a4.5,4.5,0,0,0,1.13,3.17l2.91-2.74s0,0,0,0a1.46,1.46,0,0,1-.05-.43Zm1.14,3.18a4.16,4.16,0,0,0,3.1,1.23v-4a.58.58,0,0,1-.25,0h0l0,0Zm3.1,1.23a5.39,5.39,0,0,0,1.43-.18l-1.07-3.85a2,2,0,0,1-.36,0Zm1.45-.19a5.09,5.09,0,0,0,1.12-.46l-2-3.46s0,0,0,0l-.18.06Zm1.12-.46a5.88,5.88,0,0,0,.72-.51L332,210.88l-.17.11Zm.72-.51.44-.39-2.76-2.9-.26.24Zm-.94.16H334v-4h-.37Zm-1.63-2v2.25h4v-2.25Zm1.15.44a4.65,4.65,0,0,1-.93.33l1,3.88a8.71,8.71,0,0,0,1.67-.59Zm-1,.33a3.73,3.73,0,0,1-1,.11v4a7.75,7.75,0,0,0,2-.24Zm11.66-1.73v2a2,2,0,0,0,2-2Zm-6,0v-2a2,2,0,0,0-1.46.63,2,2,0,0,0-.54,1.49Zm.73,1.48-1.21,1.59h0Zm4.86-.43v-2a2,2,0,0,0-1.21.4Zm.29,0h2a2,2,0,0,0-2-2Zm0,2.11.75,1.86a2,2,0,0,0,1.25-1.86Zm-7.3-6.82,1.38,1.45h0Zm6.44-.18-1.42,1.41h0Zm-1.61,2.29v2a2,2,0,0,0,2-2.05Zm-3.42,0-2-.13a2,2,0,0,0,.53,1.5,2,2,0,0,0,1.46.63Zm6-.45h-6v4h6Zm-8,2.12a3.92,3.92,0,0,0,1.52,2.95L339.8,211s0,0,0,0a.05.05,0,0,1,0,0s0,0,0,0,0,0,0-.09Zm1.53,3a5.23,5.23,0,0,0,3.2.91v-4a3.05,3.05,0,0,1-.66-.06c-.13,0-.16-.07-.14-.05Zm3.2.91a6.47,6.47,0,0,0,2.34-.43L341.49,211a2.32,2.32,0,0,1-.9.17Zm2.34-.43a7.33,7.33,0,0,0,1.73-.92l-2.42-3.19a3.07,3.07,0,0,1-.75.37Zm.52-.51h.29v-4h-.29Zm-1.71-2v2.11h4v-2.11Zm1.25.26a7,7,0,0,1-1.33.41l.79,3.92a11,11,0,0,0,2-.62Zm-1.33.41a6.63,6.63,0,0,1-1.35.12v4a10.65,10.65,0,0,0,2.14-.2Zm-1.35.12a3.83,3.83,0,0,1-2.51-.64l-2.58,3.06a7.67,7.67,0,0,0,5.09,1.58Zm-2.51-.64a1.93,1.93,0,0,1-.61-1.64h-4a5.9,5.9,0,0,0,2,4.7Zm-.61-1.64a2.25,2.25,0,0,1,.63-1.77l-2.76-2.9a6.23,6.23,0,0,0-1.87,4.67Zm.63-1.77a2.77,2.77,0,0,1,2.05-.65v-4a6.72,6.72,0,0,0-4.81,1.75Zm2.05-.65a2.14,2.14,0,0,1,1.59.43l2.84-2.82a6.07,6.07,0,0,0-4.43-1.61Zm1.6.44a2,2,0,0,1,.42,1.5h4a5.92,5.92,0,0,0-1.59-4.33Zm.42,1.5v.92h4v-.92Zm1.38-.68a3.8,3.8,0,0,0-.94-2.55l-2.93,2.72a.53.53,0,0,1-.1-.14.12.12,0,0,1,0-.08s0,0,0,.16Zm-.94-2.55a3.56,3.56,0,0,0-2.68-1.06v4c.11,0,.12,0,.06,0a.89.89,0,0,1-.31-.22Zm-2.68-1.06a3.89,3.89,0,0,0-2.5.84l2.51,3.11-.06,0,0,0h.09Zm-2.5.84a3.65,3.65,0,0,0-1.29,2.69l4,.27c0-.12,0-.14,0-.09l-.06.11-.13.13Zm.7,4.82h3.42v-4h-3.42Zm16.17.8-1.87-.7h0Zm-.81,1.38-1.46-1.36h0Zm-1.19.86-.81-1.83Zm-2.63.14.6-1.91h0Zm-1-.42.94-1.76a2,2,0,0,0-2.94,1.76Zm0,3.43v2a2,2,0,0,0,2-2Zm-2.64,0h-2a2,2,0,0,0,2,2Zm0-11.24v-2a2,2,0,0,0-2,2Zm2.64,0h2a2,2,0,0,0-2-2Zm0,.86h-2a2,2,0,0,0,3.25,1.56Zm1.24-.79-.85-1.81h0Zm3.85.83-1.6,1.2h0Zm-4.33,1,.53,1.93h0Zm-.76.32-1-1.72a2,2,0,0,0-1,1.72Zm0,4.14h-2a2,2,0,0,0,1.28,1.87Zm2.72-.44,1.53,1.29h0Zm1.23-1.9a3.14,3.14,0,0,1-.19,1.15l3.74,1.41a7.12,7.12,0,0,0,.45-2.56Zm-.19,1.16a2.18,2.18,0,0,1-.4.71l2.92,2.72a6,6,0,0,0,1.23-2.05Zm-.41.71a1.39,1.39,0,0,1-.53.39l1.61,3.66a5.72,5.72,0,0,0,1.86-1.33Zm-.53.39a1.49,1.49,0,0,1-.62.13v4a5.38,5.38,0,0,0,2.23-.47Zm-.62.13a1.84,1.84,0,0,1-.6-.07l-1.19,3.82a6,6,0,0,0,1.79.25Zm-.62-.07a4.47,4.47,0,0,1-.64-.27l-1.87,3.53a7,7,0,0,0,1.36.57Zm-3.58,1.49v3.43h4v-3.43Zm2,1.43h-2.64v4h2.64Zm-.64,2V206.53h-4v11.24Zm-2-9.24h2.64v-4h-2.64Zm.64-2v.86h4v-.86Zm3.25,2.42a4.4,4.4,0,0,1,.85-.54l-1.72-3.61a8.63,8.63,0,0,0-1.62,1Zm.84-.54a1.53,1.53,0,0,1,.61-.11v-4a5.45,5.45,0,0,0-2.31.49Zm.61-.11a.83.83,0,0,1,.79.33l3.2-2.4a4.8,4.8,0,0,0-4-1.93Zm.8.34a3.11,3.11,0,0,1,.45,1.89h4a6.94,6.94,0,0,0-1.27-4.31Zm1.73,1.94a4.85,4.85,0,0,0-.81-3L349.62,210c-.08-.1-.07-.14-.05,0a2.31,2.31,0,0,1,.05.58Zm-.81-3a3.52,3.52,0,0,0-2.9-1.33v4c.1,0,.08,0,0,0l-.15-.09a.64.64,0,0,1-.14-.15Zm-2.9-1.33a4.91,4.91,0,0,0-1.33.19l1.13,3.84a.66.66,0,0,1,.2,0Zm-1.3.19a5,5,0,0,0-1.24.52l2,3.45a.8.8,0,0,1,.27-.12Zm-2.22,2.24v4.14h4v-4.14Zm1.28,6a4.13,4.13,0,0,0,1.09.26l.39-4h0Zm1.09.26c.26,0,.53,0,.79,0v-4a2.75,2.75,0,0,1-.4,0Zm.79,0a3.94,3.94,0,0,0,3.09-1.31l-3.06-2.58a.24.24,0,0,1,.09-.08s.05,0,.07,0h-.19Zm3.09-1.32a4.78,4.78,0,0,0,1-3.13h-4a2.45,2.45,0,0,1-.05.54c0,.09,0,.08,0,0Zm8.86,1,.5,1.94a2,2,0,0,0,1.5-1.94Zm-.9.17-.24-2h0Zm-3.46-.56-1.28,1.54h0Zm-.74-6h2a2,2,0,0,0-2-2Zm-1.09,0h-2a2,2,0,0,0,2,2Zm0-1.79v-2a2,2,0,0,0-2,2Zm1.09,0v2a2,2,0,0,0,2-2Zm0-2.35v-2a2,2,0,0,0-2,2Zm2.63,0h2a2,2,0,0,0-2-2Zm0,2.35h-2a2,2,0,0,0,2,2Zm2.47,0h2a2,2,0,0,0-2-2Zm0,1.79v2a2,2,0,0,0,2-2Zm-2.47,0v-2a2,2,0,0,0-2,2Zm.13,4.25,1.85-.75v0Zm.36.41-1,1.71.06,0Zm1.29.05-.5-1.93h0Zm.47-.16v-2a2.06,2.06,0,0,0-1,.25Zm.22,0h2a2,2,0,0,0-2-2Zm-.5-.12a4.89,4.89,0,0,1-.64.12l.48,4a8.5,8.5,0,0,0,1.16-.22Zm-.67.12a6.26,6.26,0,0,1-.89,0v4a10.54,10.54,0,0,0,1.43-.09Zm-.89,0a1.87,1.87,0,0,1-1-.17l-2.55,3.09a5.56,5.56,0,0,0,3.57,1.08Zm-1-.16c.07.06.08.1.05,0a2.09,2.09,0,0,1-.07-.63h-4a4.61,4.61,0,0,0,1.46,3.67Zm0-.6v-3.84h-4v3.84Zm-2-5.84h-1.09v4h1.09Zm.91,2v-1.79h-4v1.79Zm-2,.21h1.09v-4h-1.09Zm3.09-2v-2.35h-4v2.35Zm-2-.35H359v-4H356.4Zm.63-2v2.35h4v-2.35Zm2,4.35h2.47v-4H359Zm.47-2v1.79h4v-1.79Zm2-.21H359v4h2.47Zm-4.47,2v2.91h4v-2.91Zm0,2.91c0,.3,0,.57,0,.8l4-.09c0-.19,0-.43,0-.71Zm0,.8a3.52,3.52,0,0,0,.28,1.32l3.68-1.57a.43.43,0,0,1,0,.16Zm.26,1.28a2.84,2.84,0,0,0,1.19,1.38l2.06-3.43a1.51,1.51,0,0,1,.25.22,1,1,0,0,1,.21.34Zm1.25,1.41a3.49,3.49,0,0,0,1.73.4v-4h-.06a1.27,1.27,0,0,1,.27.11Zm1.73.4a4.49,4.49,0,0,0,1.05-.15l-1-3.87-.08,0h.06Zm1-.15a3.78,3.78,0,0,0,.93-.35l-1.94-3.5.07,0,.05,0h0l-.09,0Zm0-.1h.22v-4h-.22Zm-1.78-2v1.81h4v-1.81ZM378.15,209v2a2,2,0,0,0,2-2Zm-9.36,0h-2a2,2,0,0,0,2,2Zm0-2v-2a2,2,0,0,0-2,2Zm9.36,0h2a2,2,0,0,0-2-2Zm0,5.81v2a2,2,0,0,0,2-2Zm-9.36,0h-2a2,2,0,0,0,2,2Zm0-2v-2a2,2,0,0,0-2,2Zm9.36,0h2a2,2,0,0,0-2-2Zm0-3.89h-9.36v4h9.36Zm-7.36,2v-2h-4v2Zm-2,0h9.36v-4h-9.36Zm7.36-2v2h4v-2Zm2,3.81h-9.36v4h9.36Zm-7.36,2v-2h-4v2Zm-2,0h9.36v-4h-9.36Zm7.36-2v2h4v-2ZM395,214.76v2a2,2,0,0,0,2-2Zm-8.56,0h-2a2,2,0,0,0,2,2Zm0-1.81-1.18-1.62a2,2,0,0,0-.82,1.62Zm2-1.5-1.26-1.56h0Zm1.58-1.38-1.39-1.44h0Zm1.15-3.91-1.31,1.52,0,0Zm-2.8-.13-.7-1.87h0Zm-1.37.71v2a2,2,0,0,0,1.12-.34Zm-.24,0h-2a2,2,0,0,0,2,2Zm0-2.42-.8-1.83a2,2,0,0,0-1.2,1.83Zm1.53-.46-.43-2h0Zm5.17.64-1.26,1.56h0Zm.55,4.4-1.74-1h0Zm-1.57,1.91,1.35,1.47h0ZM391.08,212l1.21,1.59h0Zm-1,.72L389,211a2,2,0,0,0,1.17,3.63Zm4.9,0h2a2,2,0,0,0-2-2Zm0,.09h-8.56v4H395Zm-6.56,2V213h-4v1.81Zm-.83-.19c.68-.49,1.37-1,2.05-1.57l-2.52-3.11c-.63.51-1.26,1-1.88,1.44Zm2-1.57c.69-.55,1.27-1.05,1.73-1.5l-2.8-2.86c-.33.32-.81.74-1.44,1.25Zm1.72-1.49a9.58,9.58,0,0,0,1.6-1.93l-3.46-2a5.61,5.61,0,0,1-.92,1.07Zm1.6-1.93a4.48,4.48,0,0,0,.64-2.27h-4a.18.18,0,0,1,0,.06.59.59,0,0,1-.09.19Zm.64-2.27a3.39,3.39,0,0,0-1.2-2.68l-2.56,3.07a.76.76,0,0,1-.2-.27c0-.1,0-.15,0-.12Zm-1.17-2.66a4,4,0,0,0-2.69-.9v4H390l-.05,0-.11-.07Zm-2.69-.9a6,6,0,0,0-2.12.41l1.4,3.75a2,2,0,0,1,.72-.16Zm-2.12.41a8.52,8.52,0,0,0-1.8.93l2.25,3.31a4.84,4.84,0,0,1,1-.5Zm-.67.58h-.24v4H387Zm1.76,2v-2.42h-4v2.42Zm-1.2-.59a7.88,7.88,0,0,1,1.17-.33l-.88-3.91a10.6,10.6,0,0,0-1.89.58Zm1.17-.33a7.34,7.34,0,0,1,1.6-.18v-4a11.4,11.4,0,0,0-2.47.27Zm1.6-.18a3,3,0,0,1,1.87.42l2.51-3.12a6.86,6.86,0,0,0-4.38-1.3Zm1.88.43c.17.13.32.32.32.86h4a4.9,4.9,0,0,0-1.83-4Zm.32.86a2,2,0,0,1-.26,1l3.49,2a6,6,0,0,0,.77-2.94Zm-.27,1a5.88,5.88,0,0,1-1.19,1.42l2.73,2.93a9.93,9.93,0,0,0,2-2.42Zm-1.18,1.42c-.4.37-.81.71-1.21,1l2.45,3.16a18.73,18.73,0,0,0,1.47-1.25Zm-1.19,1L389,211l2.33,3.25c.22-.15.56-.41,1-.75Zm.25,4.31H395v-4h-4.9Zm2.9-2v2.09h4v-2.09Z" fill="#fff"/><path d="M272,217.77h-2.9l2.1-3.18-1.36-8.06h2.7l.71,5.39,3.13-5.39h2.79ZM284.82,211h-5.58v-2.11h5.58Zm4.7,3.8h-2.64v-8.23h2.64Zm.07-9.4h-2.78v-2h2.78Zm10.68,9.4h-2.65v-4.08c0-.34,0-.67-.05-1a2.08,2.08,0,0,0-.18-.74.82.82,0,0,0-.43-.39,2,2,0,0,0-.78-.13,2.43,2.43,0,0,0-.74.12,3.52,3.52,0,0,0-.79.38v5.83H292v-8.23h2.64v.91a6.35,6.35,0,0,1,1.34-.84,3.45,3.45,0,0,1,1.45-.3,2.74,2.74,0,0,1,2.08.78,3.22,3.22,0,0,1,.75,2.32Zm7.69-.08a6,6,0,0,1-.9.17,9.24,9.24,0,0,1-1.16.07,3.55,3.55,0,0,1-2.3-.63,2.65,2.65,0,0,1-.74-2.13v-3.84h-1.09v-1.79h1.09v-2.35h2.63v2.35H308v1.79h-2.47v2.91c0,.29,0,.54,0,.76a1.58,1.58,0,0,0,.12.58.89.89,0,0,0,.36.41,1.69,1.69,0,0,0,.76.14,2.08,2.08,0,0,0,.53-.09,1.76,1.76,0,0,0,.47-.16H308Zm9.68-3.55h-6a1.89,1.89,0,0,0,.73,1.48,3.32,3.32,0,0,0,2,.51,4.47,4.47,0,0,0,1.62-.3,5.26,5.26,0,0,0,1.24-.64h.29v2.11a9.36,9.36,0,0,1-1.68.52,8.62,8.62,0,0,1-1.75.16,5.76,5.76,0,0,1-3.8-1.11,3.92,3.92,0,0,1-1.32-3.17,4.23,4.23,0,0,1,1.25-3.22,4.75,4.75,0,0,1,3.43-1.2,4.06,4.06,0,0,1,3,1,3.94,3.94,0,0,1,1,2.92ZM315,209.58a1.81,1.81,0,0,0-.41-1.24,1.57,1.57,0,0,0-1.21-.42,1.91,1.91,0,0,0-1.25.4,1.66,1.66,0,0,0-.55,1.26Zm10.45-.54h-.24a2.27,2.27,0,0,0-.54-.09c-.25,0-.46,0-.62,0a6,6,0,0,0-1,.07,5.4,5.4,0,0,0-.93.25v5.51H319.5v-8.23h2.64v1.21a5.35,5.35,0,0,1,1.52-1,3.21,3.21,0,0,1,1.18-.25h.32l.31,0Zm5.78,5.93a7.13,7.13,0,0,1-2-.25,4.37,4.37,0,0,1-1.55-.79,3.69,3.69,0,0,1-1-1.35,4.67,4.67,0,0,1-.36-1.9,4.84,4.84,0,0,1,.38-2,3.7,3.7,0,0,1,1.08-1.38,4.37,4.37,0,0,1,1.54-.77,6.74,6.74,0,0,1,1.8-.24,5.9,5.9,0,0,1,1.56.19A7.62,7.62,0,0,1,334,207v2.25h-.37l-.37-.31a4.07,4.07,0,0,0-.53-.34,2.75,2.75,0,0,0-.66-.26,2.67,2.67,0,0,0-.84-.11,2,2,0,0,0-1.62.67,2.7,2.7,0,0,0-.57,1.82,2.56,2.56,0,0,0,.58,1.8,2.19,2.19,0,0,0,1.66.61,3.06,3.06,0,0,0,.89-.11,3.32,3.32,0,0,0,.67-.27,3.8,3.8,0,0,0,.44-.31c.13-.1.24-.21.35-.31H334v2.25a7.16,7.16,0,0,1-1.3.46A5.81,5.81,0,0,1,331.25,215Zm12.64-3.84h-6a1.89,1.89,0,0,0,.73,1.48,3.32,3.32,0,0,0,2,.51,4.47,4.47,0,0,0,1.62-.3,5.26,5.26,0,0,0,1.24-.64h.29v2.11a9.36,9.36,0,0,1-1.68.52,8.69,8.69,0,0,1-1.75.16,5.74,5.74,0,0,1-3.8-1.11,3.92,3.92,0,0,1-1.32-3.17,4.23,4.23,0,0,1,1.25-3.22,4.75,4.75,0,0,1,3.43-1.2,4.06,4.06,0,0,1,3,1,3.94,3.94,0,0,1,1,2.92Zm-2.62-1.55a1.81,1.81,0,0,0-.41-1.24,1.57,1.57,0,0,0-1.21-.42,1.91,1.91,0,0,0-1.25.4,1.66,1.66,0,0,0-.55,1.26Zm13.07.95a5.17,5.17,0,0,1-.32,1.85,3.88,3.88,0,0,1-.81,1.38,3.51,3.51,0,0,1-1.19.86,3.46,3.46,0,0,1-1.43.3,4.15,4.15,0,0,1-1.2-.16,4.65,4.65,0,0,1-1-.42v3.43h-2.64V206.53h2.64v.86a6.28,6.28,0,0,1,1.24-.79,3.37,3.37,0,0,1,1.46-.3,2.83,2.83,0,0,1,2.39,1.13A5,5,0,0,1,354.34,210.53Zm-2.72.05a2.93,2.93,0,0,0-.41-1.74,1.51,1.51,0,0,0-1.3-.54,2.59,2.59,0,0,0-.76.11,3.4,3.4,0,0,0-.76.32v4.14a1.76,1.76,0,0,0,.57.13,3.89,3.89,0,0,0,.59,0,1.93,1.93,0,0,0,1.56-.6A2.85,2.85,0,0,0,351.62,210.58Zm9.88,4.1a6,6,0,0,1-.9.17,9.37,9.37,0,0,1-1.16.07,3.55,3.55,0,0,1-2.3-.63,2.65,2.65,0,0,1-.74-2.13v-3.84h-1.09v-1.79h1.09v-2.35H359v2.35h2.47v1.79H359v2.91c0,.29,0,.54,0,.76a1.58,1.58,0,0,0,.12.58.89.89,0,0,0,.36.41,1.69,1.69,0,0,0,.76.14,2.15,2.15,0,0,0,.53-.09,1.76,1.76,0,0,0,.47-.16h.22ZM378.15,209h-9.36v-2h9.36Zm0,3.85h-9.36v-2h9.36ZM395,214.76h-8.56V213c.65-.47,1.3-1,2-1.5s1.18-1,1.58-1.38a7.43,7.43,0,0,0,1.26-1.5,2.44,2.44,0,0,0,.37-1.26,1.43,1.43,0,0,0-.48-1.15,2.08,2.08,0,0,0-1.38-.41,4.21,4.21,0,0,0-1.42.28,6.58,6.58,0,0,0-1.37.71h-.24v-2.42a10.1,10.1,0,0,1,1.53-.46,9.44,9.44,0,0,1,2-.22,5,5,0,0,1,3.13.86,2.94,2.94,0,0,1,1.07,2.43,4,4,0,0,1-.52,2,7.87,7.87,0,0,1-1.57,1.91c-.45.41-.89.79-1.34,1.14l-1,.72H395Z" fill="#cd4d03"/><path d="M305.4,109.73a2.39,2.39,0,0,1-1.15,2.06,5.54,5.54,0,0,1-3.12.77,9.31,9.31,0,0,1-2-.2,7.43,7.43,0,0,1-1.44-.46v-2.17h.24a5.2,5.2,0,0,0,.46.31,4,4,0,0,0,.74.35,6,6,0,0,0,.93.3,4.86,4.86,0,0,0,1.11.11,3,3,0,0,0,1.15-.16.56.56,0,0,0,.37-.52.46.46,0,0,0-.22-.43,2.68,2.68,0,0,0-.83-.26c-.2-.05-.46-.09-.8-.14s-.64-.12-.91-.19a3.26,3.26,0,0,1-1.66-.91,2.29,2.29,0,0,1-.54-1.55,2.34,2.34,0,0,1,1.12-2,5.3,5.3,0,0,1,3.07-.79,8.42,8.42,0,0,1,1.77.19,7.61,7.61,0,0,1,1.32.4v2.08h-.22a5.05,5.05,0,0,0-1.34-.65,4.71,4.71,0,0,0-1.52-.26,2.91,2.91,0,0,0-1.08.18c-.28.11-.43.28-.43.49a.54.54,0,0,0,.2.45,2.65,2.65,0,0,0,.93.31l.86.16c.32,0,.63.11.94.19a2.93,2.93,0,0,1,1.54.86A2.15,2.15,0,0,1,305.4,109.73Zm4.39,2.6h-2.63V100.94h2.63Zm10.9-4.1a4.3,4.3,0,0,1-1.19,3.2,4.52,4.52,0,0,1-3.31,1.16,4.57,4.57,0,0,1-3.33-1.16,4.93,4.93,0,0,1,0-6.41,4.53,4.53,0,0,1,3.32-1.17,4.46,4.46,0,0,1,3.32,1.18A4.28,4.28,0,0,1,320.69,108.23Zm-3.24,2a2.26,2.26,0,0,0,.38-.76,4.91,4.91,0,0,0,.13-1.23,5.24,5.24,0,0,0-.13-1.22,2.18,2.18,0,0,0-.37-.78,1.26,1.26,0,0,0-.56-.42,1.87,1.87,0,0,0-.71-.13,2.44,2.44,0,0,0-.69.1,1.46,1.46,0,0,0-.56.41,2.33,2.33,0,0,0-.39.79,4.84,4.84,0,0,0-.14,1.25,5,5,0,0,0,.13,1.17,2,2,0,0,0,.36.79,1.5,1.5,0,0,0,.56.42,2,2,0,0,0,.75.13,2.2,2.2,0,0,0,.68-.11A1.4,1.4,0,0,0,317.45,110.23Zm13.71-2.12a5.17,5.17,0,0,1-.31,1.85,4.2,4.2,0,0,1-.81,1.38,3.55,3.55,0,0,1-1.2.86,3.43,3.43,0,0,1-1.43.3,4.13,4.13,0,0,1-1.19-.16,5,5,0,0,1-1-.42v3.43h-2.64V104.11h2.64V105a5.94,5.94,0,0,1,1.23-.79,3.45,3.45,0,0,1,1.47-.3,2.84,2.84,0,0,1,2.39,1.13A5,5,0,0,1,331.16,108.11Zm-2.71,0a2.93,2.93,0,0,0-.41-1.74,1.54,1.54,0,0,0-1.3-.54,2.61,2.61,0,0,0-.77.11,3.53,3.53,0,0,0-.75.32v4.14a2,2,0,0,0,.56.13l.59,0a1.93,1.93,0,0,0,1.56-.6A2.8,2.8,0,0,0,328.45,108.16Zm12.72.55h-6a1.91,1.91,0,0,0,.74,1.48,3.3,3.3,0,0,0,2,.51,4.46,4.46,0,0,0,1.61-.3,4.89,4.89,0,0,0,1.24-.64H341v2.11a8.89,8.89,0,0,1-1.68.52,8.62,8.62,0,0,1-1.75.16,5.73,5.73,0,0,1-3.79-1.11,3.92,3.92,0,0,1-1.32-3.17,4.23,4.23,0,0,1,1.24-3.22,4.76,4.76,0,0,1,3.43-1.2,4.09,4.09,0,0,1,3,1,4,4,0,0,1,1,2.92Zm-2.62-1.55a1.86,1.86,0,0,0-.41-1.24,1.59,1.59,0,0,0-1.21-.42,1.88,1.88,0,0,0-1.25.4,1.66,1.66,0,0,0-.55,1.26Zm19.54-.62h-9.36v-2h9.36Zm0,3.85h-9.36v-2h9.36Zm33.52-3.85h-9.36v-2h9.36Zm0,3.85h-9.36v-2h9.36Zm15.8-3.17a2.45,2.45,0,0,1,.57.72,2.4,2.4,0,0,1,.21,1.09,3.36,3.36,0,0,1-.31,1.44,3,3,0,0,1-.93,1.14,4.56,4.56,0,0,1-1.45.71,7.28,7.28,0,0,1-2,.24,11.24,11.24,0,0,1-2.33-.21,8.23,8.23,0,0,1-1.57-.48v-2.39h.28a7.5,7.5,0,0,0,1.5.66,5.57,5.57,0,0,0,1.61.28,7.85,7.85,0,0,0,.92-.07,2,2,0,0,0,.84-.31,1.27,1.27,0,0,0,.6-1.19,1.12,1.12,0,0,0-.22-.73,1.23,1.23,0,0,0-.58-.38,2.77,2.77,0,0,0-.87-.12l-.93,0h-.6v-1.94h.62c.38,0,.72,0,1,0a2.59,2.59,0,0,0,.75-.17,1.07,1.07,0,0,0,.48-.37,1.16,1.16,0,0,0,.16-.68.77.77,0,0,0-.17-.52,1.14,1.14,0,0,0-.42-.33,2.5,2.5,0,0,0-.68-.17,6.07,6.07,0,0,0-.66,0,5,5,0,0,0-1.5.25,6.66,6.66,0,0,0-1.56.68h-.27v-2.37a11,11,0,0,1,1.63-.46,9.86,9.86,0,0,1,2.1-.23,7.51,7.51,0,0,1,1.81.19,4.23,4.23,0,0,1,1.28.47,2.4,2.4,0,0,1,.89.87,2.35,2.35,0,0,1,.3,1.2,2.55,2.55,0,0,1-.57,1.63,2.5,2.5,0,0,1-1.48.91v.1a3.72,3.72,0,0,1,.79.21A2.52,2.52,0,0,1,407.41,107.22Z" fill="#fff"/><path d="M304.25,111.79l1.13,1.65h0Zm-6.55.11h-2a2,2,0,0,0,1.16,1.82Zm0-2.17v-2a2,2,0,0,0-2,2Zm.24,0,1.15-1.63a2,2,0,0,0-1.15-.37Zm.46.31-1.1,1.67.05,0Zm.74.35.76-1.85h0Zm.93.3-.47,1.94h0Zm2.26,0,.82,1.82h0Zm.15-1-1.07,1.69,0,0Zm-.83-.26-.44,1.95h0Zm-.8-.14-.32,2h0Zm-.91-.19.52-1.93h0Zm-1.66-.91-1.51,1.31h0Zm.58-3.52,1.14,1.64h0Zm4.84-.6-.44,2h0Zm1.32.4h2a2,2,0,0,0-1.18-1.83Zm0,2.08v2a2,2,0,0,0,2-2Zm-.22,0-1.14,1.65a2,2,0,0,0,1.14.35Zm-1.34-.65-.65,1.89h0Zm-2.6-.08-.74-1.86h0Zm.7,1.25-.41,2h0Zm.86.16-.34,2h0Zm.94.19.51-1.93h0Zm1.54.86-1.52,1.29h0Zm-1.5,1.45c0,.11,0,.16,0,.18s-.07.11-.24.23l2.27,3.29a4.37,4.37,0,0,0,2-3.7Zm-.27.4a3.51,3.51,0,0,1-2,.43v4a7.48,7.48,0,0,0,4.25-1.12Zm-2,.43a7.53,7.53,0,0,1-1.55-.15l-.89,3.9a11.28,11.28,0,0,0,2.44.25Zm-1.55-.15a6.6,6.6,0,0,1-1.05-.32l-1.67,3.63a9.83,9.83,0,0,0,1.83.59Zm.12,1.49v-2.17h-4v2.17Zm-2-.17h.24v-4h-.24Zm-.91-.36c.15.11.32.22.51.34l2.19-3.34-.4-.27Zm.56.38a7.12,7.12,0,0,0,1,.5l1.49-3.71c-.27-.11-.4-.18-.44-.2Zm1,.49a7.57,7.57,0,0,0,1.22.39l.93-3.89a3.63,3.63,0,0,1-.63-.2Zm1.25.4a7.21,7.21,0,0,0,1.55.16v-4a3.13,3.13,0,0,1-.67-.06Zm1.55.16a4.88,4.88,0,0,0,2-.34l-1.64-3.65.09,0h0a2.8,2.8,0,0,1-.38,0Zm2-.35a2.86,2.86,0,0,0,1.05-.85,2.55,2.55,0,0,0,.47-1.48h-4a1.54,1.54,0,0,1,.29-.88,1.34,1.34,0,0,1,.49-.41Zm1.52-2.33a2.45,2.45,0,0,0-1.19-2.14l-2.06,3.43a1.67,1.67,0,0,1-.59-.64,1.54,1.54,0,0,1-.16-.65ZM303.55,108a4.49,4.49,0,0,0-1.51-.53l-.79,3.92.2,0,.11,0s0,0,0,0a.54.54,0,0,1-.16-.08Zm-1.46-.52c-.27-.06-.6-.12-.95-.17l-.58,4a5.85,5.85,0,0,1,.65.11Zm-.92-.17a6.86,6.86,0,0,1-.71-.14l-1,3.86c.35.09.72.17,1.11.23Zm-.72-.15a1.41,1.41,0,0,1-.67-.29l-3,2.64a5.16,5.16,0,0,0,2.66,1.52Zm-.66-.28s0,0,0,0a.56.56,0,0,1,0-.19h-4a4.24,4.24,0,0,0,1,2.86Zm-.05-.24v-.06l0,0s.06-.11.24-.24L297.71,103a4.33,4.33,0,0,0-2,3.61Zm.27-.33a3.34,3.34,0,0,1,1.92-.43v-4a7.19,7.19,0,0,0-4.22,1.16Zm1.92-.43a6.17,6.17,0,0,1,1.33.14l.88-3.9a10.11,10.11,0,0,0-2.21-.24Zm1.35.15a4.67,4.67,0,0,1,.93.27l1.63-3.66a8.91,8.91,0,0,0-1.72-.52Zm-.26-1.56v2.08h4v-2.08Zm2,.08h-.22v4H305Zm.91.35a7.06,7.06,0,0,0-1.85-.9l-1.25,3.8a3.06,3.06,0,0,1,.83.4Zm-1.82-.89a6.47,6.47,0,0,0-2.17-.37v4a2.7,2.7,0,0,1,.87.15Zm-2.17-.37a4.86,4.86,0,0,0-1.82.32l1.49,3.71a1.77,1.77,0,0,1,.33,0Zm-1.83.32a2.57,2.57,0,0,0-1.68,2.35h4a1.56,1.56,0,0,1-.38,1,1.21,1.21,0,0,1-.43.33Zm-1.68,2.35a2.55,2.55,0,0,0,1,2l2.46-3.16a1.52,1.52,0,0,1,.45.58,1.4,1.4,0,0,1,.12.55Zm1,2a3,3,0,0,0,.93.47,7,7,0,0,0,.82.22l.82-3.92-.25-.06-.13,0h0l.09,0,.17.11Zm1.77.69.91.17.69-3.94-.82-.15Zm.95.18.76.15,1-3.88c-.37-.09-.74-.17-1.12-.23Zm.74.15a1.32,1.32,0,0,1,.52.21l3-2.59a4.88,4.88,0,0,0-2.55-1.49Zm.52.22h0a.52.52,0,0,1,0,.15h4a4.19,4.19,0,0,0-1-2.76Zm6.41,2.75v2a2,2,0,0,0,2-2Zm-2.63,0h-2a2,2,0,0,0,2,2Zm0-11.39v-2a2,2,0,0,0-2,2Zm2.63,0h2a2,2,0,0,0-2-2Zm0,9.39h-2.63v4h2.63Zm-.63,2V100.94h-4v11.39Zm-2-9.39h2.63v-4h-2.63Zm.63-2v11.39h4V100.94Zm11.71,10.49,1.41,1.42h0Zm-6.64,0-1.41,1.42h0Zm0-6.41-1.4-1.43h0Zm6.64,0-1.41,1.41h0Zm-2.06,5.2L315.89,109v0Zm.38-.76-1.92-.56v0Zm-.37-3.23-1.58,1.23,0,0Zm-2-.45-.64-1.89h0Zm-.56.41-1.5-1.32,0,0Zm-.39.79-1.92-.57v0Zm0,2.42-1.94.49h0Zm.36.79-1.55,1.26h0Zm.56.42-.76,1.85h0Zm1.43,0,.68,1.88h0Zm1.8-2.41a2.3,2.3,0,0,1-.59,1.77l2.81,2.85a6.29,6.29,0,0,0,1.78-4.62ZM318.1,110a2.54,2.54,0,0,1-1.91.59v4a6.52,6.52,0,0,0,4.72-1.74Zm-1.91.59a2.61,2.61,0,0,1-1.93-.59l-2.8,2.85a6.52,6.52,0,0,0,4.73,1.74Zm-1.92-.58a2.34,2.34,0,0,1-.59-1.78h-4a6.32,6.32,0,0,0,1.77,4.62Zm-.59-1.78a2.31,2.31,0,0,1,.59-1.78l-2.8-2.86a6.29,6.29,0,0,0-1.79,4.64Zm.58-1.78a2.6,2.6,0,0,1,1.93-.6v-4a6.53,6.53,0,0,0-4.72,1.74Zm1.93-.6a2.56,2.56,0,0,1,1.91.59l2.83-2.83a6.48,6.48,0,0,0-4.74-1.76Zm1.91.59a2.35,2.35,0,0,1,.59,1.79h4a6.27,6.27,0,0,0-1.77-4.62Zm.9,5a4.19,4.19,0,0,0,.75-1.47l-3.85-1.09s0,0,0,0v0Zm.74-1.45a6.39,6.39,0,0,0,.22-1.8h-4c0,.21,0,.37,0,.49a1.05,1.05,0,0,0,0,.13.18.18,0,0,0,0,0Zm.22-1.8a6.61,6.61,0,0,0-.2-1.73l-3.86,1a3.53,3.53,0,0,1,.06.7Zm-.2-1.73A4.12,4.12,0,0,0,319,105l-3.12,2.5s0-.07,0-.06,0,0,0,.11ZM319,105A3.35,3.35,0,0,0,317.6,104l-1.41,3.74a.72.72,0,0,1-.19-.11.68.68,0,0,1-.12-.11ZM317.6,104a3.86,3.86,0,0,0-1.41-.26v4h0Zm-1.41-.26a4.15,4.15,0,0,0-1.33.21l1.29,3.79s0,0,0,0Zm-1.35.22a3.41,3.41,0,0,0-1.4,1l3,2.65a.67.67,0,0,1-.27.15Zm-1.43,1a4.28,4.28,0,0,0-.78,1.51l3.84,1.13a.36.36,0,0,1,0-.12s0,0,0,.07Zm-.78,1.54a6.65,6.65,0,0,0-.22,1.79h4a2.54,2.54,0,0,1,.07-.71Zm-.22,1.79a7,7,0,0,0,.19,1.66l3.88-1a3.15,3.15,0,0,1-.07-.69Zm.19,1.66a4,4,0,0,0,.75,1.56l3.11-2.51a.21.21,0,0,1,.05.07v0a.14.14,0,0,1,0-.07Zm.76,1.57a3.36,3.36,0,0,0,1.34,1l1.52-3.7.14.08a.38.38,0,0,1,.09.09Zm1.36,1a3.92,3.92,0,0,0,1.49.27v-4h0Zm1.49.27a4,4,0,0,0,1.36-.23l-1.36-3.76h0Zm1.39-.24a3.34,3.34,0,0,0,1.41-1L315.88,109a.79.79,0,0,1,.13-.12,1,1,0,0,1,.17-.1ZM330.85,110l-1.87-.7h0Zm-.81,1.38L328.57,110h0Zm-1.2.86-.8-1.83Zm-2.62.14.6-1.91h0Zm-1-.42.93-1.76a2,2,0,0,0-2.93,1.76Zm0,3.43v2a2,2,0,0,0,2-2Zm-2.64,0h-2a2,2,0,0,0,2,2Zm0-11.24v-2a2,2,0,0,0-2,2Zm2.64,0h2a2,2,0,0,0-2-2Zm0,.86h-2a2,2,0,0,0,3.24,1.56Zm1.23-.79-.85-1.81h0Zm3.86.83-1.6,1.2h0ZM326,106l.54,1.93h0Zm-.75.32-1-1.72a2,2,0,0,0-1,1.72Zm0,4.14h-2a2,2,0,0,0,1.27,1.87Zm2.71-.44,1.53,1.29h0Zm1.23-1.9a3.38,3.38,0,0,1-.18,1.15l3.74,1.41a7.11,7.11,0,0,0,.44-2.56Zm-.19,1.16a1.86,1.86,0,0,1-.4.7l2.93,2.73a6,6,0,0,0,1.23-2Zm-.4.71a1.6,1.6,0,0,1-.53.39l1.61,3.66a5.72,5.72,0,0,0,1.86-1.33Zm-.53.39a1.5,1.5,0,0,1-.63.13v4a5.39,5.39,0,0,0,2.24-.47Zm-.63.13a1.81,1.81,0,0,1-.59-.07l-1.2,3.82a6,6,0,0,0,1.79.25Zm-.62-.07a5,5,0,0,1-.64-.27l-1.87,3.53a7.09,7.09,0,0,0,1.37.57Zm-3.57,1.49v3.43h4v-3.43Zm2,1.43h-2.64v4h2.64Zm-.64,2V104.11h-4v11.24Zm-2-9.24h2.64v-4h-2.64Zm.64-2V105h4v-.86Zm3.24,2.42a4.45,4.45,0,0,1,.86-.54l-1.73-3.61a8.63,8.63,0,0,0-1.62,1Zm.85-.54a1.45,1.45,0,0,1,.61-.11v-4a5.5,5.5,0,0,0-2.32.49Zm.61-.11a.84.84,0,0,1,.79.33l3.19-2.4a4.78,4.78,0,0,0-4-1.93Zm.79.34a3,3,0,0,1,.45,1.89h4a7,7,0,0,0-1.26-4.31Zm1.74,1.94a4.86,4.86,0,0,0-.82-3l-3.19,2.41c-.07-.1-.07-.14,0,0a2.94,2.94,0,0,1,.05.58Zm-.82-3a3.49,3.49,0,0,0-2.89-1.33v4c.1,0,.08,0,0,0l-.16-.09-.14-.15Zm-2.89-1.33a5,5,0,0,0-1.34.19l1.14,3.84a.62.62,0,0,1,.2,0Zm-1.3.19a5,5,0,0,0-1.24.52l2,3.45a.8.8,0,0,1,.27-.12Zm-2.22,2.24v4.14h4v-4.14Zm1.27,6a4.29,4.29,0,0,0,1.1.26l.39-4h0Zm1.1.26q.39,0,.78,0v-4a2.61,2.61,0,0,1-.39,0Zm.78,0a3.93,3.93,0,0,0,3.09-1.31l-3-2.58a.3.3,0,0,1,.08-.08.13.13,0,0,1,.07,0h-.19Zm3.1-1.32a4.78,4.78,0,0,0,1-3.13h-4a1.82,1.82,0,0,1-.06.54c0,.09,0,.08,0,0Zm11.7-2.58v2a2,2,0,0,0,2-2Zm-6,0v-2a2,2,0,0,0-1.45.63,2,2,0,0,0-.54,1.49Zm.74,1.48-1.21,1.59h0Zm4.85-.43v-2a2,2,0,0,0-1.21.4Zm.29,0h2a2,2,0,0,0-2-2Zm0,2.11.75,1.86a2,2,0,0,0,1.25-1.86Zm-7.3-6.82,1.38,1.45h0Zm6.45-.18-1.42,1.41h0Zm-1.61,2.29v2a2,2,0,0,0,1.43-.6,2,2,0,0,0,.57-1.45Zm-3.42,0-2-.13a2,2,0,0,0,2,2.13Zm6-.45h-6v4h6Zm-8,2.12a3.89,3.89,0,0,0,1.52,3l2.42-3.18,0,0,0,.05s0,0,0,0a.55.55,0,0,1,0-.09Zm1.52,3a5.28,5.28,0,0,0,3.21.91v-4a3.17,3.17,0,0,1-.67-.06c-.13,0-.15-.07-.13,0Zm3.21.91a6.41,6.41,0,0,0,2.33-.43l-1.43-3.74a2.36,2.36,0,0,1-.9.17Zm2.33-.43a7.33,7.33,0,0,0,1.73-.92l-2.42-3.19a2.93,2.93,0,0,1-.74.37Zm.52-.51H341v-4h-.29Zm-1.71-2v2.11h4v-2.11Zm1.26.26a8.18,8.18,0,0,1-1.34.41l.8,3.92a10.93,10.93,0,0,0,2-.62Zm-1.34.41a6.5,6.5,0,0,1-1.35.12v4a10.68,10.68,0,0,0,2.15-.2Zm-1.35.12a3.79,3.79,0,0,1-2.5-.64L332.5,113a7.64,7.64,0,0,0,5.08,1.58Zm-2.5-.64a1.93,1.93,0,0,1-.61-1.64h-4a5.9,5.9,0,0,0,2,4.7Zm-.61-1.64a2.25,2.25,0,0,1,.62-1.77l-2.76-2.9a6.22,6.22,0,0,0-1.86,4.67Zm.62-1.77a2.8,2.8,0,0,1,2.05-.65v-4a6.74,6.74,0,0,0-4.81,1.75Zm2.05-.65a2.18,2.18,0,0,1,1.6.43l2.84-2.82a6.08,6.08,0,0,0-4.44-1.61Zm1.6.44a2,2,0,0,1,.43,1.5h4a5.93,5.93,0,0,0-1.6-4.33Zm.43,1.5v.92h4v-.92Zm1.38-.68a3.86,3.86,0,0,0-.95-2.55l-2.93,2.72a.94.94,0,0,1-.1-.14l0-.08a.67.67,0,0,1,0,.16Zm-.95-2.55a3.55,3.55,0,0,0-2.67-1.06v4c.11,0,.12,0,.06,0a.91.91,0,0,1-.32-.22Zm-2.67-1.06a3.9,3.9,0,0,0-2.51.84l2.51,3.11-.05,0,0,0h.09Zm-2.51.84a3.65,3.65,0,0,0-1.29,2.69l4,.27c0-.12,0-.14,0-.09a.58.58,0,0,1-.07.11.53.53,0,0,1-.13.13Zm.71,4.82h3.42v-4h-3.42Zm23-2.62v2a2,2,0,0,0,2-2Zm-9.36,0h-2a2,2,0,0,0,2,2Zm0-2v-2a2,2,0,0,0-2,2Zm9.36,0h2a2,2,0,0,0-2-2Zm0,5.81v2a2,2,0,0,0,2-2Zm-9.36,0h-2a2,2,0,0,0,2,2Zm0-2v-2a2,2,0,0,0-2,2Zm9.36,0h2a2,2,0,0,0-2-2Zm0-3.89h-9.36v4h9.36Zm-7.36,2v-2h-4v2Zm-2,0h9.36v-4h-9.36Zm7.36-2v2h4v-2Zm2,3.81h-9.36v4h9.36Zm-7.36,2v-2h-4v2Zm-2,0h9.36v-4h-9.36Zm7.36-2v2h4v-2Zm35.52-1.89v2a2,2,0,0,0,2-2Zm-9.36,0h-2a2,2,0,0,0,2,2Zm0-2v-2a2,2,0,0,0-2,2Zm9.36,0h2a2,2,0,0,0-2-2Zm0,5.81v2a2,2,0,0,0,2-2Zm-9.36,0h-2a2,2,0,0,0,2,2Zm0-2v-2a2,2,0,0,0-2,2Zm9.36,0h2a2,2,0,0,0-2-2Zm0-3.89h-9.36v4h9.36Zm-7.36,2v-2h-4v2Zm-2,0h9.36v-4h-9.36Zm7.36-2v2h4v-2Zm2,3.81h-9.36v4h9.36Zm-7.36,2v-2h-4v2Zm-2,0h9.36v-4h-9.36Zm7.36-2v2h4v-2Zm17.8-1.21,1.3-1.52h0Zm.47,3.25-1.81-.84v0Zm-.93,1.14,1.2,1.6h0Zm-1.45.71.57,1.92h0Zm-4.34,0-.43,2h0Zm-1.57-.48h-2a2,2,0,0,0,1.2,1.84Zm0-2.39v-2a2,2,0,0,0-2,2Zm.28,0,1-1.71a2,2,0,0,0-1-.29Zm1.5.66-.6,1.9h0Zm2.53.21.26,2h0Zm.84-.31-1.12-1.65h0Zm.43-.44,1.7,1.07v0Zm-.05-1.48-1.54,1.28,0,0Zm-.58-.38-.62,1.9,0,0Zm-.87-.12-.05,2h0Zm-1.53,0h-2a2,2,0,0,0,2,2Zm0-1.94v-2a2,2,0,0,0-2,2Zm2.38-.21.78,1.84h0Zm.48-.37,1.63,1.16,0,0Zm0-1.2-1.54,1.26s0,0,0,0Zm-.42-.33-.84,1.82h0Zm-2.84,0,.56,1.92h0Zm-1.56.68v2a2,2,0,0,0,1-.28Zm-.27,0h-2a2,2,0,0,0,2,2Zm0-2.37-.75-1.85a2,2,0,0,0-1.25,1.85Zm1.63-.46.42,2h0Zm3.91,0-.46,1.94h0Zm1.28.47,1-1.72h0Zm.62,3.7,1.57,1.24h0Zm-1.48.91-.42-2a2,2,0,0,0-1.58,2Zm0,.1h-2a2,2,0,0,0,1.72,2Zm.25,2.17a.31.31,0,0,1,.09.12l3.56-1.84a4.51,4.51,0,0,0-1.05-1.32Zm.09.12c0-.06,0-.09,0-.06s0,.11,0,.23h4a4.37,4.37,0,0,0-.43-2Zm0,.17a1.37,1.37,0,0,1-.12.6l3.63,1.68a5.44,5.44,0,0,0,.49-2.28Zm-.13.62a1,1,0,0,1-.31.36l2.41,3.2a5,5,0,0,0,1.55-1.92Zm-.31.36a2.32,2.32,0,0,1-.82.39l1.15,3.84a6.58,6.58,0,0,0,2.07-1Zm-.81.39a5.35,5.35,0,0,1-1.45.16v4a9.26,9.26,0,0,0,2.58-.32Zm-1.45.16a9.32,9.32,0,0,1-1.9-.16l-.85,3.9a13,13,0,0,0,2.75.26Zm-1.9-.16a8.21,8.21,0,0,1-1.21-.36l-1.59,3.67a10.81,10.81,0,0,0,1.94.59Zm0,1.47v-2.39h-4v2.39Zm-2-.39h.28v-4h-.28Zm-.75-.29a8.89,8.89,0,0,0,1.93.85l1.21-3.81a5.66,5.66,0,0,1-1.07-.46Zm1.93.85a7.08,7.08,0,0,0,2.21.38v-4a3.43,3.43,0,0,1-1-.19Zm2.21.38a8,8,0,0,0,1.18-.09l-.52-4a6.07,6.07,0,0,1-.66,0Zm1.21-.09a4.07,4.07,0,0,0,1.68-.63l-2.25-3.31,0,0h-.05Zm1.67-.63a3.67,3.67,0,0,0,1-1l-3.39-2.13a.52.52,0,0,1,.14-.15Zm1-1a3.46,3.46,0,0,0,.46-1.8h-4c0,.06,0,.06,0,0a1.1,1.1,0,0,1,.13-.3Zm.46-1.8a3.08,3.08,0,0,0-.71-2l-3,2.61a1,1,0,0,1-.26-.57Zm-.69-2a3.15,3.15,0,0,0-1.53-1L404,109.66a1,1,0,0,1-.17-.09,1.12,1.12,0,0,1-.2-.17Zm-1.49-1a4.93,4.93,0,0,0-1.46-.22l-.06,4c.2,0,.28,0,.28,0Zm-1.43-.22-1,0v4l.88,0Zm-1,0h-.6v4h.6Zm1.4,2v-1.94h-4v1.94Zm-2,.06h.62v-4h-.62Zm.62,0c.42,0,.81,0,1.17,0l-.33-4c-.22,0-.5,0-.84,0Zm1.17,0a4.54,4.54,0,0,0,1.37-.32l-1.57-3.68s0,0,0,0l-.14,0Zm1.38-.32a3.14,3.14,0,0,0,1.32-1.05l-3.26-2.31a1,1,0,0,1,.35-.32Zm1.34-1.07a3.21,3.21,0,0,0,.51-1.82h-4s0,0,0-.06a1.35,1.35,0,0,1,.18-.39Zm.51-1.82a2.76,2.76,0,0,0-.65-1.82l-3,2.59a1.24,1.24,0,0,1-.31-.77Zm-.62-1.79a3.22,3.22,0,0,0-1.14-.88l-1.66,3.64a.73.73,0,0,1-.29-.23Zm-1.13-.87a4.21,4.21,0,0,0-1.29-.35l-.45,4,.08,0h0Zm-1.29-.35c-.31,0-.61-.06-.89-.06v4l.44,0Zm-.89-.06a7,7,0,0,0-2.07.33l1.15,3.83a3.15,3.15,0,0,1,.92-.16Zm-2.06.32a9.07,9.07,0,0,0-2,.89l2,3.44a4.38,4.38,0,0,1,1.1-.48Zm-1,.61h-.27v4h.27Zm1.73,2v-2.37h-4v2.37Zm-1.25-.51a7.72,7.72,0,0,1,1.3-.36l-.83-3.92a11.94,11.94,0,0,0-2,.57Zm1.31-.37a7.83,7.83,0,0,1,1.67-.18v-4a11.25,11.25,0,0,0-2.52.28Zm1.67-.18a5.83,5.83,0,0,1,1.35.13l.92-3.89a9.76,9.76,0,0,0-2.27-.24Zm1.37.14a2.49,2.49,0,0,1,.7.24l2-3.44a6.45,6.45,0,0,0-1.86-.71Zm.69.24a1.27,1.27,0,0,1,.16.11s0,0,0,0l3.47-2a4.46,4.46,0,0,0-1.6-1.6Zm.19.15v0a.59.59,0,0,1,0,.17h4a4.33,4.33,0,0,0-.56-2.19Zm0,.2a.55.55,0,0,1-.14.39l3.15,2.48a4.59,4.59,0,0,0,1-2.87Zm-.13.39a.56.56,0,0,1-.34.19l.84,3.91a4.47,4.47,0,0,0,2.63-1.62Zm-1.92,2.15v.1h4v-.1Zm1.72,2.08a1.79,1.79,0,0,1,.38.1l1.38-3.75a6.32,6.32,0,0,0-1.21-.31Zm.38.1a.44.44,0,0,1,.15.1l2.6-3a4.4,4.4,0,0,0-1.37-.8Z" fill="#fff"/><path d="M373.33,98.52a2.26,2.26,0,0,1,.58.73,2.36,2.36,0,0,1,.22,1.11,3.56,3.56,0,0,1-.31,1.45,3,3,0,0,1-.95,1.15,4.43,4.43,0,0,1-1.46.72,7.11,7.11,0,0,1-2,.25,10.76,10.76,0,0,1-2.36-.22,8.48,8.48,0,0,1-1.59-.48v-2.42h.29a6.94,6.94,0,0,0,1.52.66,5.34,5.34,0,0,0,1.62.29,7.86,7.86,0,0,0,.93-.07,2,2,0,0,0,.86-.31,1.53,1.53,0,0,0,.43-.45,1.43,1.43,0,0,0,.17-.76,1.09,1.09,0,0,0-.23-.74,1.16,1.16,0,0,0-.58-.38,3.14,3.14,0,0,0-.88-.13H368v-2h.63c.38,0,.72,0,1,0a2.3,2.3,0,0,0,.76-.17,1.18,1.18,0,0,0,.49-.37,1.3,1.3,0,0,0,.16-.69.8.8,0,0,0-.17-.53,1.27,1.27,0,0,0-.43-.33,2.18,2.18,0,0,0-.68-.18,6.08,6.08,0,0,0-.68,0,5.37,5.37,0,0,0-1.51.24,7.09,7.09,0,0,0-1.58.69h-.27V93.13a9.55,9.55,0,0,1,1.65-.47,10,10,0,0,1,2.12-.23,7.62,7.62,0,0,1,1.83.19,4.36,4.36,0,0,1,1.3.48,2.45,2.45,0,0,1,.9.88,2.4,2.4,0,0,1,.3,1.22,2.58,2.58,0,0,1-.57,1.64,2.54,2.54,0,0,1-1.51.92v.1a4.53,4.53,0,0,1,.8.21A2.6,2.6,0,0,1,373.33,98.52Z" fill="#fff"/><path d="M373.74,122.19h-7.37v-1.93h2.33v-5.83h-2.33v-1.81a8.47,8.47,0,0,0,1-.06,2.5,2.5,0,0,0,.82-.22,1.3,1.3,0,0,0,.57-.48,1.51,1.51,0,0,0,.23-.74h2.45v9.14h2.28Z" fill="#fff"/><path d="M305.4,109.73a2.39,2.39,0,0,1-1.15,2.06,5.54,5.54,0,0,1-3.12.77,9.31,9.31,0,0,1-2-.2,7.43,7.43,0,0,1-1.44-.46v-2.17h.24a5.2,5.2,0,0,0,.46.31,4,4,0,0,0,.74.35,6,6,0,0,0,.93.3,4.86,4.86,0,0,0,1.11.11,3,3,0,0,0,1.15-.16.56.56,0,0,0,.37-.52.46.46,0,0,0-.22-.43,2.68,2.68,0,0,0-.83-.26c-.2-.05-.46-.09-.8-.14s-.64-.12-.91-.19a3.26,3.26,0,0,1-1.66-.91,2.29,2.29,0,0,1-.54-1.55,2.34,2.34,0,0,1,1.12-2,5.3,5.3,0,0,1,3.07-.79,8.42,8.42,0,0,1,1.77.19,7.61,7.61,0,0,1,1.32.4v2.08h-.22a5.05,5.05,0,0,0-1.34-.65,4.71,4.71,0,0,0-1.52-.26,2.91,2.91,0,0,0-1.08.18c-.28.11-.43.28-.43.49a.54.54,0,0,0,.2.45,2.65,2.65,0,0,0,.93.31l.86.16c.32,0,.63.11.94.19a2.93,2.93,0,0,1,1.54.86A2.15,2.15,0,0,1,305.4,109.73Zm4.39,2.6h-2.63V100.94h2.63Zm10.9-4.1a4.3,4.3,0,0,1-1.19,3.2,4.52,4.52,0,0,1-3.31,1.16,4.57,4.57,0,0,1-3.33-1.16,4.93,4.93,0,0,1,0-6.41,4.53,4.53,0,0,1,3.32-1.17,4.46,4.46,0,0,1,3.32,1.18A4.28,4.28,0,0,1,320.69,108.23Zm-3.24,2a2.26,2.26,0,0,0,.38-.76,4.91,4.91,0,0,0,.13-1.23,5.24,5.24,0,0,0-.13-1.22,2.18,2.18,0,0,0-.37-.78,1.26,1.26,0,0,0-.56-.42,1.87,1.87,0,0,0-.71-.13,2.44,2.44,0,0,0-.69.1,1.46,1.46,0,0,0-.56.41,2.33,2.33,0,0,0-.39.79,4.84,4.84,0,0,0-.14,1.25,5,5,0,0,0,.13,1.17,2,2,0,0,0,.36.79,1.5,1.5,0,0,0,.56.42,2,2,0,0,0,.75.13,2.2,2.2,0,0,0,.68-.11A1.4,1.4,0,0,0,317.45,110.23Zm13.71-2.12a5.17,5.17,0,0,1-.31,1.85,4.2,4.2,0,0,1-.81,1.38,3.55,3.55,0,0,1-1.2.86,3.43,3.43,0,0,1-1.43.3,4.13,4.13,0,0,1-1.19-.16,5,5,0,0,1-1-.42v3.43h-2.64V104.11h2.64V105a5.94,5.94,0,0,1,1.23-.79,3.45,3.45,0,0,1,1.47-.3,2.84,2.84,0,0,1,2.39,1.13A5,5,0,0,1,331.16,108.11Zm-2.71,0a2.93,2.93,0,0,0-.41-1.74,1.54,1.54,0,0,0-1.3-.54,2.61,2.61,0,0,0-.77.11,3.53,3.53,0,0,0-.75.32v4.14a2,2,0,0,0,.56.13l.59,0a1.93,1.93,0,0,0,1.56-.6A2.8,2.8,0,0,0,328.45,108.16Zm12.72.55h-6a1.91,1.91,0,0,0,.74,1.48,3.3,3.3,0,0,0,2,.51,4.46,4.46,0,0,0,1.61-.3,4.89,4.89,0,0,0,1.24-.64H341v2.11a8.89,8.89,0,0,1-1.68.52,8.62,8.62,0,0,1-1.75.16,5.73,5.73,0,0,1-3.79-1.11,3.92,3.92,0,0,1-1.32-3.17,4.23,4.23,0,0,1,1.24-3.22,4.76,4.76,0,0,1,3.43-1.2,4.09,4.09,0,0,1,3,1,4,4,0,0,1,1,2.92Zm-2.62-1.55a1.86,1.86,0,0,0-.41-1.24,1.59,1.59,0,0,0-1.21-.42,1.88,1.88,0,0,0-1.25.4,1.66,1.66,0,0,0-.55,1.26Zm19.54-.62h-9.36v-2h9.36Zm0,3.85h-9.36v-2h9.36Zm33.52-3.85h-9.36v-2h9.36Zm0,3.85h-9.36v-2h9.36Zm15.8-3.17a2.45,2.45,0,0,1,.57.72,2.4,2.4,0,0,1,.21,1.09,3.36,3.36,0,0,1-.31,1.44,3,3,0,0,1-.93,1.14,4.56,4.56,0,0,1-1.45.71,7.28,7.28,0,0,1-2,.24,11.24,11.24,0,0,1-2.33-.21,8.23,8.23,0,0,1-1.57-.48v-2.39h.28a7.5,7.5,0,0,0,1.5.66,5.57,5.57,0,0,0,1.61.28,7.85,7.85,0,0,0,.92-.07,2,2,0,0,0,.84-.31,1.27,1.27,0,0,0,.6-1.19,1.12,1.12,0,0,0-.22-.73,1.23,1.23,0,0,0-.58-.38,2.77,2.77,0,0,0-.87-.12l-.93,0h-.6v-1.94h.62c.38,0,.72,0,1,0a2.59,2.59,0,0,0,.75-.17,1.07,1.07,0,0,0,.48-.37,1.16,1.16,0,0,0,.16-.68.77.77,0,0,0-.17-.52,1.14,1.14,0,0,0-.42-.33,2.5,2.5,0,0,0-.68-.17,6.07,6.07,0,0,0-.66,0,5,5,0,0,0-1.5.25,6.66,6.66,0,0,0-1.56.68h-.27v-2.37a11,11,0,0,1,1.63-.46,9.86,9.86,0,0,1,2.1-.23,7.51,7.51,0,0,1,1.81.19,4.23,4.23,0,0,1,1.28.47,2.4,2.4,0,0,1,.89.87,2.35,2.35,0,0,1,.3,1.2,2.55,2.55,0,0,1-.57,1.63,2.5,2.5,0,0,1-1.48.91v.1a3.72,3.72,0,0,1,.79.21A2.52,2.52,0,0,1,407.41,107.22Z" fill="#bd3cc2"/><path d="M374.69,97.64h0a3.87,3.87,0,0,0,.84-2.42A3.52,3.52,0,0,0,373.73,92h0a5.78,5.78,0,0,0-1.66-.63,9.32,9.32,0,0,0-2.11-.21,11.21,11.21,0,0,0-2.39.25,12.22,12.22,0,0,0-1.86.53,1.27,1.27,0,0,0-.79,1.18v2.39a1.26,1.26,0,0,0,1.26,1.27h.28a1.21,1.21,0,0,0,.64-.18l.15-.08a1.1,1.1,0,0,0-.07.41v2a1.25,1.25,0,0,0,1.26,1.26h.61l.91,0h0a2.19,2.19,0,0,1,.44,0,.2.2,0,0,0,0,.07l0,0h0a.78.78,0,0,1-.32.11,7.24,7.24,0,0,1-.75,0,4.1,4.1,0,0,1-1.24-.22,5.73,5.73,0,0,1-1.25-.55,1.28,1.28,0,0,0-.66-.18h-.29a1.27,1.27,0,0,0-1.26,1.27v2.42a1.26,1.26,0,0,0,.76,1.16,10,10,0,0,0,1.83.56h0a12.31,12.31,0,0,0,2.62.24,8.92,8.92,0,0,0,2.4-.29h0a6.1,6.1,0,0,0,1.86-.92h0a4.08,4.08,0,0,0,1.33-1.64,4.6,4.6,0,0,0,.43-2,3.65,3.65,0,0,0-.36-1.69A3.59,3.59,0,0,0,374.69,97.64Z" fill="#fff" stroke="#fff" stroke-linejoin="round" stroke-width="2.53"/><path d="M374.18,123.45a1.27,1.27,0,0,0,1.27-1.26v-1.93a1.27,1.27,0,0,0-1.27-1.27h-1v-7.87a1.26,1.26,0,0,0-1.26-1.27h-2.46a1.28,1.28,0,0,0-1.26,1.19.29.29,0,0,1,0,.12l-.06,0a1.55,1.55,0,0,1-.43.11,7.85,7.85,0,0,1-.87,0,1.26,1.26,0,0,0-1.26,1.26v1.81a1.27,1.27,0,0,0,1.26,1.26h1.07V119h-1.07a1.27,1.27,0,0,0-1.26,1.27v1.93a1.27,1.27,0,0,0,1.26,1.26Z" fill="#fff" stroke="#fff" stroke-linejoin="round" stroke-width="2.53"/><g mask="url(#mask)"><path d="M374.72,105.48h-9v4h9Z" fill="#fff"/></g><g mask="url(#mask-2)"><path d="M374.72,106.48h-9v2h9Z" fill="#bd3cc2"/></g><path d="M373.78,98.52a2.4,2.4,0,0,1,.58.73,2.5,2.5,0,0,1,.21,1.11,3.4,3.4,0,0,1-.31,1.45,2.87,2.87,0,0,1-.94,1.15,4.39,4.39,0,0,1-1.47.72,7,7,0,0,1-2,.25,10.73,10.73,0,0,1-2.35-.22,8.61,8.61,0,0,1-1.6-.48v-2.42h.29a7.16,7.16,0,0,0,1.52.66,5.45,5.45,0,0,0,1.63.29,8.18,8.18,0,0,0,.93-.07,2,2,0,0,0,.85-.31,1.57,1.57,0,0,0,.44-.45,1.43,1.43,0,0,0,.16-.76,1.09,1.09,0,0,0-.22-.74,1.16,1.16,0,0,0-.58-.38,3.2,3.2,0,0,0-.88-.13h-1.56v-2h.63c.39,0,.73,0,1,0a2.3,2.3,0,0,0,.75-.17,1.12,1.12,0,0,0,.49-.37,1.21,1.21,0,0,0,.17-.69.76.76,0,0,0-.18-.53,1.1,1.1,0,0,0-.43-.33,2.18,2.18,0,0,0-.68-.18,5.79,5.79,0,0,0-.67,0,5.32,5.32,0,0,0-1.51.24,6.89,6.89,0,0,0-1.58.69h-.28V93.13a11.51,11.51,0,0,1,3.78-.7,7.74,7.74,0,0,1,1.83.19,4.3,4.3,0,0,1,1.29.48,2.25,2.25,0,0,1,1.2,2.1,2.58,2.58,0,0,1-.57,1.64,2.51,2.51,0,0,1-1.5.92v.1a4.53,4.53,0,0,1,.8.21A2.6,2.6,0,0,1,373.78,98.52Z" fill="#bd3cc2"/><path d="M374.18,122.19h-7.37v-1.93h2.33v-5.83h-2.33v-1.81a8.52,8.52,0,0,0,1-.06,2.44,2.44,0,0,0,.81-.22,1.33,1.33,0,0,0,.58-.48,1.5,1.5,0,0,0,.22-.74h2.46v9.14h2.27Z" fill="#bd3cc2"/><path d="M272.14,108.17a2.1,2.1,0,0,1,.5.62,2.14,2.14,0,0,1,.18.95,3,3,0,0,1-.26,1.24,2.57,2.57,0,0,1-.81,1,3.81,3.81,0,0,1-1.26.62,6.23,6.23,0,0,1-1.74.21,9.76,9.76,0,0,1-2-.18,7.78,7.78,0,0,1-1.37-.42v-2.07h.25a6.27,6.27,0,0,0,1.3.57,4.67,4.67,0,0,0,1.39.24,5.7,5.7,0,0,0,.8-.06,1.76,1.76,0,0,0,.73-.26,1.52,1.52,0,0,0,.38-.38,1.35,1.35,0,0,0,.14-.66,1,1,0,0,0-.19-.63,1.07,1.07,0,0,0-.5-.33,2.72,2.72,0,0,0-.75-.1l-.82,0h-.52v-1.69h.54c.33,0,.63,0,.88,0a2.32,2.32,0,0,0,.65-.14.84.84,0,0,0,.56-.91.69.69,0,0,0-.15-.46,1,1,0,0,0-.37-.28,2.23,2.23,0,0,0-.58-.15,4.45,4.45,0,0,0-.58,0,4.56,4.56,0,0,0-1.3.21,6.15,6.15,0,0,0-1.35.59h-.23v-2a9.08,9.08,0,0,1,1.41-.4,8.53,8.53,0,0,1,1.82-.2,7.23,7.23,0,0,1,1.57.16,3.68,3.68,0,0,1,1.11.42,2,2,0,0,1,1,1.79,2.23,2.23,0,0,1-1.78,2.2v.09a3.28,3.28,0,0,1,.68.18A2,2,0,0,1,272.14,108.17Z" fill="#bd3cc2"/><path d="M293,64.1h-6.31V62.45h2v-5h-2V55.91a6.22,6.22,0,0,0,.88,0,2.44,2.44,0,0,0,.7-.19,1.12,1.12,0,0,0,.49-.41,1.34,1.34,0,0,0,.19-.64h2.1v7.83h2Z" fill="#bd3cc2"/><path d="M299.73,71.67a.48.48,0,0,1,0,.86l-10,5a.49.49,0,0,1-.7-.44v-10a.49.49,0,0,1,.7-.44Z" fill="#bd3cc2"/><path d="M320.1,16.59a.41.41,0,0,1,.7.24L322,26.35a.42.42,0,0,1-.55.44L313.39,24a.41.41,0,0,1-.16-.68Z" fill="#03a6a0"/><polyline points="278.88 141.47 279.06 71.97 297.87 71.97" fill="none" stroke="#bd3cc2" stroke-width="3" stroke-dasharray="5 5"/><line x1="317.8" y1="24.26" x2="162.51" y2="489.6" fill="none" stroke="#03a6a0" stroke-width="2"/><circle cx="255.47" cy="209.97" r="3.5" fill="#cd4d03"/><path d="M278.49,70.77a.49.49,0,0,1,.87,0l5,10a.48.48,0,0,1-.43.7h-10a.48.48,0,0,1-.43-.7Z" fill="#bd3cc2"/><rect x="365.72" y="106.48" width="9" height="2" fill="#bd3cc2"/></svg>